<svg fill="none" height="49" viewBox="0 0 164 49" width="164" xmlns="http://www.w3.org/2000/svg"><path d="m157.428 48.2366h-151.37306c-3.39077 0-6.05494-2.653-6.05494-6.0296v-36.17743c0-3.37656 2.66417-6.02957 6.05494-6.02957h151.37306c3.391 0 6.055 2.65301 6.055 6.02957v36.17743c0 3.256-2.664 6.0296-6.055 6.0296z" fill="#0f1218"/><g fill="#fff"><path d="m36.2796 23.4447c.014-1.0871.3027-2.1529.8393-3.0984s1.3037-1.7398 2.2298-2.3092c-.5883-.8402-1.3645-1.5317-2.2668-2.0195-.9023-.4879-1.906-.7586-2.9312-.7906-2.187-.2296-4.3072 1.3086-5.4217 1.3086-1.136 0-2.8519-1.2858-4.6996-1.2478-1.1952.0386-2.36.3861-3.3809 1.0088-1.0209.6226-1.8631 1.499-2.4446 2.5439-2.5188 4.3609-.64 10.77 1.7728 14.2951 1.2072 1.7261 2.618 3.6542 4.4641 3.5858 1.8065-.0749 2.4812-1.1519 4.6617-1.1519 2.1604 0 2.7934 1.1519 4.6769 1.1085 1.9384-.0315 3.1598-1.7338 4.3246-3.4763.8673-1.2299 1.5348-2.5892 1.9775-4.0276-1.1261-.4763-2.0872-1.2736-2.7633-2.2925-.6761-1.0188-1.0373-2.2142-1.0386-3.4369z"/><path d="m32.7224 12.9089c1.0569-1.2688 1.5776-2.8996 1.4515-4.54611-1.6147.1696-3.1063.94134-4.1775 2.16141-.5237.5961-.9248 1.2895-1.1804 2.0407s-.3606 1.5454-.3091 2.3372c.8076.0083 1.6067-.1668 2.3369-.512.7302-.3453 1.3725-.8517 1.8786-1.4812z"/><path d="m59.1137 32.3529h-6.1647l-1.4805 4.3714h-2.6111l5.8391-16.173h2.7129l5.8391 16.173h-2.6557zm-5.5262-2.0172h4.8865l-2.4089-7.0944h-.0674z"/><path d="m75.8591 30.8285c0 3.6643-1.9612 6.0185-4.9208 6.0185-.7497.0392-1.4953-.1335-2.1515-.4984-.6561-.3648-1.1962-.9071-1.5585-1.5646h-.056v5.8404h-2.4203v-15.6922h2.3428v1.9612h.0445c.3789-.6544.9282-1.1938 1.5893-1.5609s1.4094-.5481 2.1652-.5237c2.9926 0 4.9653 2.3657 4.9653 6.0197zm-2.4877 0c0-2.3872-1.2337-3.9567-3.1161-3.9567-1.8493 0-3.0931 1.6025-3.0931 3.9567 0 2.3759 1.2438 3.967 3.0931 3.967 1.8824 0 3.1161-1.5581 3.1161-3.967z"/><path d="m88.8376 30.8285c0 3.6642-1.9612 6.0184-4.9208 6.0184-.7497.0393-1.4953-.1334-2.1514-.4983-.6562-.3648-1.1963-.9071-1.5586-1.5646h-.056v5.8404h-2.4203v-15.6922h2.3427v1.9612h.0445c.379-.6544.9282-1.1939 1.5894-1.5609.6611-.3671 1.4094-.5481 2.1652-.5237 2.9927 0 4.9653 2.3657 4.9653 6.0197zm-2.4877 0c0-2.3872-1.2337-3.9567-3.1161-3.9567-1.8492 0-3.0931 1.6025-3.0931 3.9567 0 2.3759 1.2439 3.9669 3.0931 3.9669 1.8824 0 3.1161-1.558 3.1161-3.9669z"/><path d="m97.4151 32.2172c.1794 1.6038 1.7374 2.6569 3.8669 2.6569 2.04 0 3.507-1.0531 3.507-2.4992 0-1.2554-.885-2.007-2.981-2.5221l-2.0959-.505c-2.9698-.7173-4.3485-2.1062-4.3485-4.3599 0-2.7904 2.4318-4.7071 5.8854-4.7071 3.417 0 5.76 1.9167 5.839 4.7071h-2.444c-.146-1.614-1.48-2.5882-3.43-2.5882-1.9496 0-3.2838.9857-3.2838 2.4203 0 1.1434.8522 1.8162 2.9368 2.3313l1.782.4375c3.318.7848 4.697 2.1177 4.697 4.4833 0 3.0258-2.41 4.9208-6.244 4.9208-3.5864 0-6.0081-1.8505-6.1645-4.7758z"/><path d="m112.568 22.1416v2.7905h2.242v1.9167h-2.242v6.5004c0 1.0099.449 1.4805 1.435 1.4805.266-.0047.532-.0234.796-.056v1.9052c-.443.0828-.894.1203-1.344.1119-2.388 0-3.319-.8966-3.319-3.1834v-6.7586h-1.714v-1.9167h1.714v-2.7905z"/><path d="m116.109 30.8284c0-3.71 2.185-6.0413 5.593-6.0413 3.419 0 5.593 2.3313 5.593 6.0413 0 3.7202-2.163 6.0414-5.593 6.0414-3.429 0-5.593-2.3212-5.593-6.0414zm8.72 0c0-2.545-1.166-4.047-3.127-4.047s-3.126 1.5135-3.126 4.047c0 2.5552 1.165 4.0458 3.126 4.0458s3.127-1.4906 3.127-4.0458z"/><path d="m129.291 24.9321h2.308v2.0069h.056c.157-.6268.524-1.1807 1.04-1.5687.517-.3879 1.151-.5863 1.797-.5616.279-.001.557.0293.829.0903v2.2639c-.352-.1076-.719-.157-1.088-.1463-.351-.0142-.702.0478-1.027.1818s-.618.3368-.858.5945c-.239.2578-.42.5643-.53.8986-.11.3342-.146.6884-.107 1.038v6.994h-2.42z"/><path d="m146.48 33.2602c-.325 2.1406-2.41 3.6096-5.077 3.6096-3.43 0-5.559-2.2983-5.559-5.9854 0-3.6986 2.14-6.0973 5.457-6.0973 3.263 0 5.314 2.241 5.314 5.8162v.8293h-8.328v.1462c-.038.434.016.8711.159 1.2825.144.4113.373.7874.673 1.1033s.664.5644 1.067.7289c.404.1645.838.2412 1.273.2252.572.0536 1.146-.0789 1.637-.3777.49-.2988.871-.748 1.086-1.2808zm-8.182-3.5192h5.896c.021-.3902-.038-.7807-.174-1.1469-.137-.3662-.347-.7004-.619-.9814-.271-.281-.598-.5028-.959-.6516-.362-.1487-.75-.2212-1.141-.2128-.394-.0023-.785.0734-1.149.2228-.365.1495-.697.3697-.976.6479s-.5.609-.651.9732-.228.7547-.227 1.1488z"/><path d="m53.9418 10.1382c.5074-.0364 1.0166.0403 1.4908.2245s.9016.4713 1.2514.8407.6133.8118.7714 1.2953c.1581.4836.2069.9962.143 1.5009 0 2.4826-1.3418 3.9097-3.6566 3.9097h-2.807v-7.7711zm-1.6 6.6721h1.4651c.3626.0217.7255-.0378 1.0622-.174.3367-.1363.6388-.3459.8843-.6136s.4282-.5868.5348-.9341c.1066-.3472.1345-.7138.0815-1.0732.0491-.3579.0185-.7223-.0898-1.067-.1082-.3447-.2914-.6612-.5363-.9268s-.5456-.4737-.8804-.6095c-.3348-.1357-.6955-.1957-1.0563-.1757h-1.4651z"/><path d="m58.9623 14.9745c-.0369-.3854.0072-.7742.1294-1.1416.1223-.3674.3199-.7051.5803-.9916s.5778-.5155.9319-.6721c.354-.1566.7369-.2376 1.1241-.2376.3871 0 .77.081 1.1241.2376.354.1566.6714.3856.9318.6721s.4581.6242.5803.9916.1663.7562.1294 1.1416c.0376.3858-.006.7752-.1279 1.1431-.1219.368-.3194.7064-.5799.9934-.2604.2871-.5781.5165-.9325.6735s-.7377.2381-1.1253.2381c-.3877 0-.771-.0811-1.1254-.2381s-.6721-.3864-.9325-.6735c-.2605-.287-.458-.6254-.5799-.9934-.1219-.3679-.1655-.7573-.1279-1.1431zm4.3408 0c0-1.2712-.571-2.0146-1.5732-2.0146-1.0061 0-1.572.7434-1.572 2.0146 0 1.2814.566 2.0191 1.572 2.0191 1.0022 0 1.5733-.7428 1.5733-2.0191z"/><path d="m71.8451 17.9095h-1.2006l-1.2121-4.3193h-.0916l-1.2069 4.3193h-1.1892l-1.6166-5.8646h1.174l1.0505 4.475h.0865l1.2057-4.475h1.1104l1.2057 4.475h.0915l1.0455-4.475h1.1574z"/><path d="m74.8145 12.0448h1.1141v.9316h.0865c.1467-.3346.3942-.6151.7079-.8024s.678-.272 1.0422-.2424c.2853-.0215.5719.0215.8383.1258.2665.1044.5061.2673.701.4768.195.2095.3403.4601.4252.7334.0849.2732.1073.5621.0654.8452v3.7964h-1.1574v-3.5058c0-.9424-.4096-1.4111-1.2655-1.4111-.1938-.009-.3872.0239-.567.0967-.1798.0727-.3417.1834-.4747.3246-.133.1411-.234.3094-.2959.4932s-.0833.3788-.0628.5717v3.4308h-1.1573z"/><path d="m81.6406 9.75537h1.1574v8.15383h-1.1574z"/><path d="m84.4056 14.9746c-.0368-.3854.0073-.7743.1295-1.1417.1223-.3673.32-.7051.5804-.9916s.5779-.5154.9319-.6721c.3541-.1566.737-.2376 1.1242-.2376s.7701.081 1.1242.2376c.3541.1567.6715.3856.9319.6721.2605.2865.4581.6243.5804.9916.1222.3674.1663.7563.1295 1.1417.0375.3858-.0061.7752-.128 1.1432-.1219.3679-.3195.7063-.58.9933-.2605.2871-.5782.5165-.9326.6735-.3544.1569-.7377.238-1.1254.238-.3876 0-.771-.0811-1.1254-.238-.3544-.157-.6721-.3864-.9326-.6735-.2605-.287-.458-.6254-.58-.9933-.1219-.368-.1655-.7574-.128-1.1432zm4.3409 0c0-1.2712-.5711-2.0146-1.5733-2.0146-1.006 0-1.572.7434-1.572 2.0146 0 1.2814.566 2.0191 1.572 2.0191 1.0022 0 1.5733-.7428 1.5733-2.0191z"/><path d="m91.1562 16.2509c0-1.0557.7861-1.6643 2.1813-1.7508l1.5885-.0915v-.5062c0-.6194-.4095-.9692-1.2006-.9692-.6461 0-1.0938.2372-1.2223.6519h-1.1205c.1183-1.0074 1.0659-1.6535 2.3962-1.6535 1.4703 0 2.2995.732 2.2995 1.9708v4.007h-1.1141v-.8242h-.0916c-.1859.2956-.4469.5366-.7563.6984-.3095.1618-.6564.2385-1.0052.2224-.2462.0256-.495-.0007-.7305-.0771-.2354-.0765-.4522-.2014-.6363-.3668-.1842-.1653-.3317-.3674-.433-.5933-.1013-.2258-.1541-.4704-.1551-.7179zm3.7698-.5012v-.4902l-1.4321.0915c-.8076.0541-1.1739.3288-1.1739.8458 0 .5278.4579.835 1.0875.835.1845.0186.3708 0 .5479-.0548.1772-.0548.3415-.1447.4831-.2643.1417-.1196.2579-.2665.3416-.4319.0838-.1655.1334-.3461.1459-.5311z"/><path d="m97.5996 14.9745c0-1.8531.9526-3.0271 2.4344-3.0271.366-.0169.73.0709 1.049.2531.318.1822.578.4513.749.7758h.087v-3.22093h1.157v8.15383h-1.109v-.9265h-.091c-.185.3223-.454.5881-.779.7684-.324.1804-.692.2685-1.063.2548-1.4919.0001-2.4344-1.1739-2.4344-3.0314zm1.1956 0c0 1.2438.5863 1.9923 1.5668 1.9923.976 0 1.578-.7593 1.578-1.9872 0-1.2223-.609-1.9924-1.578-1.9924-.9742 0-1.5668.7536-1.5668 1.9873z"/><path d="m107.865 14.9745c-.037-.3854.007-.7742.129-1.1416s.32-.7051.58-.9916c.261-.2865.578-.5155.932-.6721s.737-.2376 1.124-.2376.77.081 1.124.2376.672.3856.932.6721c.261.2865.458.6242.581.9916.122.3674.166.7562.129 1.1416.038.3858-.006.7752-.128 1.1431-.122.368-.319.7064-.58.9934-.26.2871-.578.5165-.932.6735-.355.157-.738.2381-1.126.2381-.387 0-.771-.0811-1.125-.2381s-.672-.3864-.933-.6735c-.26-.287-.458-.6254-.579-.9934-.122-.3679-.166-.7573-.128-1.1431zm4.341 0c0-1.2712-.572-2.0146-1.574-2.0146-1.006 0-1.572.7434-1.572 2.0146 0 1.2814.566 2.0191 1.572 2.0191 1.002 0 1.574-.7428 1.574-2.0191z"/><path d="m114.949 12.0448h1.114v.9316h.087c.147-.3346.394-.6151.708-.8024.313-.1873.678-.272 1.042-.2424.285-.0215.572.0215.838.1258.267.1044.506.2673.701.4768s.341.4601.425.7334c.085.2732.108.5621.066.8452v3.7964h-1.158v-3.5058c0-.9424-.409-1.4111-1.265-1.4111-.194-.009-.387.0239-.567.0967-.18.0727-.342.1834-.475.3246-.133.1411-.234.3094-.296.4932-.061.1838-.083.3788-.062.5717v3.4308h-1.158z"/><path d="m126.471 10.5845v1.4868h1.27v.9749h-1.27v3.0155c0 .6143.253.8833.829.8833.147-.0004.295-.0094.441-.0267v.9641c-.208.0372-.418.057-.629.0591-1.288 0-1.8-.4528-1.8-1.5834v-3.312h-.931v-.9749h.931v-1.4867z"/><path d="m129.322 9.75537h1.147v3.23183h.092c.154-.3378.408-.6198.728-.8078s.69-.2728 1.06-.2428c.284-.0154.568.032.831.1388.264.1069.5.2705.693.4794.193.2088.338.4576.423.7287.086.271.111.5577.073.8394v3.7864h-1.159v-3.5008c0-.9368-.436-1.4112-1.254-1.4112-.199-.0163-.399.0111-.586.0802s-.357.1782-.498.3198c-.14.1417-.248.3123-.316.5s-.094.388-.076.5868v3.4251h-1.158z"/><path d="m141.117 16.3255c-.157.536-.498.9996-.962 1.3098-.465.3101-1.024.4471-1.579.3869-.386.0102-.77-.0638-1.125-.2169s-.673-.3815-.93-.6695c-.258-.288-.45-.6287-.563-.9983-.113-.3697-.144-.7595-.091-1.1423-.052-.3841-.02-.7747.093-1.1455.112-.3707.303-.713.56-1.0035.256-.2905.572-.5226.926-.6804.354-.1579.737-.2379 1.125-.2345 1.632 0 2.616 1.1148 2.616 2.9564v.4038h-4.141v.0649c-.018.2152.009.4318.079.636.071.2041.183.3913.33.5495.147.1581.326.2838.524.369.199.0852.413.1279.629.1255.277.0333.557-.0166.805-.1432.249-.1266.454-.3242.59-.5677zm-4.071-1.89h2.962c.015-.1968-.012-.3945-.079-.5804-.066-.1858-.17-.3558-.306-.4988-.136-.1431-.301-.2562-.483-.3319-.182-.0758-.378-.1126-.576-.1081-.2-.0025-.398.0351-.584.1105-.185.0755-.354.1873-.495.3289-.142.1416-.254.3101-.329.4955-.075.1855-.113.3842-.11.5843z"/></g></svg>