<svg width="258" height="39" viewBox="0 0 258 39" fill="none" xmlns="http://www.w3.org/2000/svg">
<path d="M30.2434 4.75355C31.0595 3.31495 32.3419 1.99624 33.974 1.15706C36.5388 -0.0417731 39.9197 0.557642 42.1347 2.35589C44.1166 4.15413 45.2824 6.79156 44.6995 9.66875C45.2824 9.66875 45.6322 9.3091 46.2151 9.06934C49.3628 8.11027 52.6271 9.06934 54.7256 11.8266C56.2411 13.8647 56.7074 16.8617 55.6582 19.1395C55.3085 20.3383 54.4924 21.2974 53.5597 22.3764L53.7929 22.6161C56.7074 22.8559 59.622 25.0138 60.5546 28.0109C61.4873 31.0079 60.7878 34.005 58.5727 36.1629C56.824 37.9612 54.7256 38.5606 52.3939 38.3208H8.55919C4.82857 38.3208 2.14719 36.7623 0.864795 33.5255C-0.301022 30.7682 0.281886 27.1717 2.38036 25.0138C3.77934 23.5752 5.52806 22.9758 7.39337 22.6161C5.2949 20.5781 4.24566 17.8208 4.82857 14.8237C5.06174 12.6658 6.92704 10.0284 9.25868 9.18922C11.2406 8.35004 13.9219 8.58981 15.7873 9.54887C15.2043 6.31203 16.6033 3.43483 19.2847 1.63659C21.6163 0.0781101 25.2304 0.0781101 27.562 1.87636C28.7278 2.59565 29.6605 3.79448 30.2434 4.75355Z" fill="white"/>
<path d="M42.6012 5.95298C42.2514 5.1138 41.6685 4.39451 40.969 3.79509C39.2203 2.23661 36.3057 1.99684 34.2073 3.19568C32.2254 4.15474 31.0596 6.43252 31.0596 8.59041H33.6244C33.8575 8.83018 33.9741 8.83018 34.2073 8.95006C33.158 9.78924 31.1762 10.5085 31.6425 12.1869L34.3239 29.9296L41.9017 12.4267C43.0675 10.3887 43.6504 7.991 42.6012 5.95298Z" fill="#645FA9"/>
<path d="M26.3956 29.6895L29.5433 9.42923C29.7765 7.99063 29.3102 6.67192 28.7273 5.47309C28.1444 4.15437 26.9785 3.31519 25.8127 2.71578C23.7143 1.75671 20.9163 2.35613 19.4007 3.91461C17.8852 5.47309 17.0691 7.87075 17.8852 10.2684L25.5796 28.0111L26.3956 29.6895Z" fill="#C8234A"/>
<path d="M53.9094 13.8648C54.8421 15.6631 54.7255 18.4204 53.5597 19.9789C52.7436 21.1777 51.5778 21.7771 50.6452 22.6163L34.5569 34.0052L34.79 33.4058L43.3005 13.745C44.6995 11.3473 47.0311 10.1485 49.4793 10.5081C51.2281 10.9877 52.9768 12.1865 53.9094 13.8648Z" fill="#0088CF"/>
<path d="M8.44237 21.299L26.2794 33.8867H26.5125L17.6523 13.7463C16.1368 11.1089 12.9891 9.91006 10.0745 10.989C8.32579 11.8282 6.92681 13.3867 6.57706 15.1849C5.64441 17.4627 6.46048 19.8604 8.44237 21.299Z" fill="#F26F21"/>
<path d="M57.7568 34.485C59.1558 32.9265 59.2724 30.0493 58.5729 28.371C57.99 26.9324 56.8241 25.7336 55.4252 25.1341C53.6764 24.295 51.3448 24.5347 49.8292 25.4938L33.9741 36.7628H52.9769C54.8423 36.7628 56.3578 36.0435 57.7568 34.485Z" fill="#0DB04B"/>
<path d="M26.7457 36.7643L10.8906 25.2555C9.37506 24.2964 7.04343 24.0567 5.2947 24.8959C3.89572 25.4953 2.7299 26.6941 2.14699 28.1327C1.21434 30.1707 1.56408 32.6883 2.96306 34.2467C4.12888 35.8052 5.87761 36.6444 7.8595 36.6444L26.7457 36.7643Z" fill="#FCB813"/>
<path d="M97.8606 15.0654C97.0445 11.4689 94.3631 10.5099 91.0988 10.2701C80.8396 9.31104 79.0909 17.2233 79.0909 20.58C79.0909 26.3344 80.6065 30.89 90.7491 30.89C92.731 30.89 97.744 28.852 97.744 25.735H112.317C111.734 35.3257 96.2284 37.4835 89.4667 37.4835C75.4769 37.4835 63.469 34.8461 64.0519 20.58C64.4016 10.39 73.7282 3.31688 92.2647 3.79642C102.524 4.03618 112.433 7.39291 112.433 14.9455H97.8606V15.0654Z" fill="#2E364A"/>
<path d="M243.122 15.0642C242.306 11.4677 239.624 10.5087 236.36 10.2689C226.101 9.30982 224.352 17.2221 224.352 20.4589C224.352 26.2133 225.868 30.7689 236.01 30.7689C237.992 30.7689 243.005 28.7309 243.005 25.6139H257.578C256.995 35.2046 241.49 37.3624 234.728 37.3624C220.738 37.3624 208.73 34.725 209.313 20.4589C209.663 10.2689 218.989 3.19579 237.526 3.67532C247.785 3.91509 257.811 7.27181 257.811 14.8244H243.122V15.0642Z" fill="#2E364A"/>
<path d="M115.115 4.51562H133.884L149.973 27.653H150.206V4.51562H162.214V36.5244H144.26L127.472 13.387H127.239V36.5244H115.115C115.115 36.6443 115.115 4.51562 115.115 4.51562Z" fill="#2E364A"/>
<path d="M165.828 4.51562H188.678C199.753 4.51562 206.049 7.75247 206.049 12.4279C206.049 15.1852 203.367 18.7817 197.305 19.7408C204.416 20.1004 207.214 24.8957 207.214 27.6531C207.214 33.4074 201.036 36.4045 188.678 36.4045H165.828V4.51562ZM179.235 17.1033H183.082C188.911 17.1033 191.942 16.7437 191.942 14.1063C191.942 11.4688 189.377 10.5098 184.248 10.5098H179.351V17.1033H179.235ZM179.235 30.0507H183.082C190.077 30.0507 192.758 29.2115 192.758 26.8139C192.758 24.1764 189.494 23.2174 184.248 23.2174H179.351V29.9308H179.235V30.0507Z" fill="#2E364A"/>
</svg>
