<svg fill="none" height="49" viewBox="0 0 164 49" width="164" xmlns="http://www.w3.org/2000/svg" xmlns:xlink="http://www.w3.org/1999/xlink"><linearGradient id="a" gradientUnits="userSpaceOnUse" x1="26.4215" x2="6.27493" y1="10.6153" y2="30.8919"><stop offset="0" stop-color="#00a0ff"/><stop offset=".00657445" stop-color="#00a1ff"/><stop offset=".2601" stop-color="#00beff"/><stop offset=".5122" stop-color="#00d2ff"/><stop offset=".7604" stop-color="#00dfff"/><stop offset="1" stop-color="#00e3ff"/></linearGradient><linearGradient id="b" gradientUnits="userSpaceOnUse" x1="40.9622" x2="11.7269" y1="24.1702" y2="24.1702"><stop offset="0" stop-color="#ffe000"/><stop offset=".4087" stop-color="#ffbd00"/><stop offset=".7754" stop-color="#ffa500"/><stop offset="1" stop-color="#ff9c00"/></linearGradient><linearGradient id="c" gradientUnits="userSpaceOnUse" x1="30.0795" x2="2.75915" y1="26.9254" y2="54.422"><stop offset="0" stop-color="#ff3a44"/><stop offset="1" stop-color="#c31162"/></linearGradient><linearGradient id="d" gradientUnits="userSpaceOnUse" x1="8.89967" x2="21.0994" y1=".370597" y2="12.649"><stop offset="0" stop-color="#32a071"/><stop offset=".0685" stop-color="#2da771"/><stop offset=".4762" stop-color="#15cf74"/><stop offset=".8009" stop-color="#06e775"/><stop offset="1" stop-color="#00f076"/></linearGradient><path d="m157.152 48.1785h-151.02883c-3.38304 0-6.0411388-2.6411-6.0411388-6.0024v-36.0145c0-3.36136 2.6580988-6.00242 6.0411388-6.00242h151.02883c3.383 0 6.041 2.64106 6.041 6.00242v36.0145c0 3.2413-2.658 6.0024-6.041 6.0024z" fill="#0f1218"/><g fill="#fff"><path d="m57.3519 12.404c0 .9604-.2416 1.8007-.8458 2.4009-.7249.7203-1.5707 1.0805-2.6581 1.0805s-1.9331-.3602-2.6581-1.0805c-.7249-.7202-1.0874-1.5606-1.0874-2.641 0-1.0805.3625-1.9208 1.0874-2.64108.725-.72029 1.5707-1.08044 2.6581-1.08044.4833 0 .9666.12005 1.4499.36015s.8458.48019 1.0874.84034l-.6041.60023c-.4833-.60023-1.0874-.84033-1.9332-.84033-.7249 0-1.4498.2401-1.9331.84033-.6041.4802-.8458 1.2005-.8458 2.0408 0 .8404.2417 1.5607.8458 2.0408.6041.4802 1.2082.8404 1.9331.8404.8458 0 1.4499-.2401 2.054-.8404.3625-.3601.6041-.8403.6041-1.4405h-2.6581v-.8404h3.5039z" stroke="#fff" stroke-miterlimit="10" stroke-width=".2"/><path d="m62.9095 9.40284h-3.2623v2.28096h3.0206v.8403h-3.0206v2.2809h3.2623v.9604h-4.2288v-7.2029h4.2288z" stroke="#fff" stroke-miterlimit="10" stroke-width=".2"/><path d="m66.8965 15.7654h-.9665v-6.36256h-2.054v-.84034h5.0745v.84034h-2.054z" stroke="#fff" stroke-miterlimit="10" stroke-width=".2"/><path d="m72.4551 15.7654v-7.2029h.9665v7.2029z" stroke="#fff" stroke-miterlimit="10" stroke-width=".2"/><path d="m77.5294 15.7654h-.9666v-6.36256h-2.054v-.84034h4.9537v.84034h-2.054v6.36256z" stroke="#fff" stroke-miterlimit="10" stroke-width=".2"/><path d="m89.0071 14.8049c-.7249.7203-1.5707 1.0805-2.6581 1.0805s-1.9331-.3602-2.6581-1.0805c-.7249-.7202-1.0874-1.5606-1.0874-2.641 0-1.0805.3625-1.9208 1.0874-2.64108.725-.72029 1.5707-1.08044 2.6581-1.08044s1.9332.36015 2.6581 1.08044c.725.72028 1.0874 1.56058 1.0874 2.64108 0 1.0804-.3624 1.9208-1.0874 2.641zm-4.5912-.6002c.4833.4802 1.2082.8403 1.9331.8403.725 0 1.4499-.2401 1.9332-.8403.4833-.4802.8457-1.2005.8457-2.0408 0-.8404-.2416-1.5606-.8457-2.0408-.4833-.48023-1.2082-.84038-1.9332-.84038-.7249 0-1.4498.2401-1.9331.84038-.4833.4802-.8458 1.2004-.8458 2.0408 0 .8403.2416 1.5606.8458 2.0408z" stroke="#fff" stroke-miterlimit="10" stroke-width=".2"/><path d="m91.4238 15.7654v-7.2029h1.0874l3.5039 5.6423v-1.4406-4.2017h.9666v7.2029h-.9666l-3.7455-5.88237v1.44057 4.4418z" stroke="#fff" stroke-miterlimit="10" stroke-width=".2"/><path d="m82.3624 26.3298c-2.8998 0-5.1954 2.1608-5.1954 5.162 0 2.8812 2.2956 5.1621 5.1954 5.1621 2.8997 0 5.1954-2.1609 5.1954-5.1621 0-3.1212-2.2957-5.162-5.1954-5.162zm0 8.1632c-1.5707 0-2.8998-1.3205-2.8998-3.1212s1.3291-3.1213 2.8998-3.1213 2.8997 1.2005 2.8997 3.1213c0 1.8007-1.329 3.1212-2.8997 3.1212zm-11.2365-8.1632c-2.8998 0-5.1954 2.1608-5.1954 5.162 0 2.8812 2.2956 5.1621 5.1954 5.1621 2.8997 0 5.1954-2.1609 5.1954-5.1621 0-3.1212-2.2957-5.162-5.1954-5.162zm0 8.1632c-1.5707 0-2.8998-1.3205-2.8998-3.1212s1.3291-3.1213 2.8998-3.1213 2.8997 1.2005 2.8997 3.1213c0 1.8007-1.329 3.1212-2.8997 3.1212zm-13.4114-6.6026v2.1609h5.1954c-.1208 1.2004-.6041 2.1608-1.2082 2.7611-.7249.7203-1.9332 1.5606-3.9872 1.5606-3.2622 0-5.6786-2.521-5.6786-5.7623s2.5373-5.7623 5.6786-5.7623c1.6916 0 3.0206.7203 3.9872 1.5606l1.5707-1.5606c-1.3291-1.2005-3.0206-2.1609-5.437-2.1609-4.3497 0-8.0952 3.6014-8.0952 7.9232 0 4.3217 3.7455 7.9232 8.0952 7.9232 2.4164 0 4.1079-.7203 5.5578-2.2809 1.4499-1.4406 1.9332-3.4814 1.9332-5.0421 0-.4802 0-.9604-.1208-1.3205zm54.8535 1.6807c-.483-1.2005-1.691-3.2413-4.35-3.2413-2.658 0-4.832 2.0408-4.832 5.162 0 2.8812 2.174 5.1621 5.074 5.1621 2.296 0 3.746-1.4406 4.229-2.2809l-1.692-1.2005c-.604.8404-1.329 1.4406-2.537 1.4406s-1.933-.4802-2.537-1.5606l6.887-2.8812zm-7.008 1.6806c0-1.9207 1.571-3.0012 2.658-3.0012.846 0 1.692.4802 1.934 1.0805zm-5.6783 4.922h2.2953v-15.006h-2.2953zm-3.6247-8.7635c-.6041-.6002-1.5707-1.2005-2.7789-1.2005-2.5373 0-4.9537 2.2809-4.9537 5.1621s2.2956 5.042 4.9537 5.042c1.2082 0 2.1748-.6002 2.6581-1.2005h.1208v.7203c0 1.9208-1.0874 3.0012-2.7789 3.0012-1.329 0-2.2956-.9604-2.5373-1.8007l-1.9331.8403c.6041 1.3206 2.0539 3.0013 4.5912 3.0013 2.6581 0 4.8329-1.5607 4.8329-5.2822v-9.1236h-2.1748zm-2.6581 7.0828c-1.5707 0-2.8997-1.3205-2.8997-3.1212s1.329-3.1213 2.8997-3.1213 2.7789 1.3206 2.7789 3.1213-1.2082 3.1212-2.7789 3.1212zm29.4811-13.3253h-5.437v15.006h2.295v-5.6422h3.142c2.537 0 4.953-1.8008 4.953-4.6819 0-2.8812-2.416-4.6819-4.953-4.6819zm.121 7.2029h-3.263v-5.1621h3.263c1.691 0 2.658 1.4406 2.658 2.521-.121 1.3206-1.088 2.6411-2.658 2.6411zm13.894-2.1609c-1.691 0-3.383.7203-3.987 2.2809l2.054.8404c.483-.8404 1.208-1.0805 2.054-1.0805 1.208 0 2.296.7203 2.416 1.9208v.1201c-.362-.2401-1.329-.6003-2.295-.6003-2.175 0-4.35 1.2005-4.35 3.3614 0 2.0408 1.812 3.3613 3.746 3.3613 1.57 0 2.295-.7203 2.899-1.4406h.121v1.2005h2.175v-5.7623c-.242-2.6411-2.296-4.2017-4.833-4.2017zm-.242 8.2833c-.724 0-1.812-.3601-1.812-1.3205 0-1.2005 1.329-1.5606 2.417-1.5606.966 0 1.449.2401 2.054.4802-.242 1.4406-1.45 2.4009-2.659 2.4009zm12.687-7.9231-2.537 6.4826h-.121l-2.658-6.4826h-2.417l3.987 9.1236-2.295 5.0421h2.295l6.162-14.1657zm-20.298 9.6038h2.295v-15.006h-2.295z"/></g><path d="m12.6481 9.16309c-.3625.36014-.6042.96041-.6042 1.68071v26.5306c0 .7203.2417 1.3206.6042 1.6807l.1208.1201 14.982-14.886v-.1201-.12z" fill="url(#a)"/><path d="m32.7047 29.3306-4.9537-4.922v-.2401-.1201l4.9537-4.9219.1208.12 5.9203 3.3614c1.6916.9604 1.6916 2.521 0 3.4814z" fill="url(#b)"/><path d="m32.8258 29.211-5.0745-5.0421-15.1029 15.0061c.6042.6002 1.4499.6002 2.5373.12z" fill="url(#c)"/><path d="m32.8258 19.1267-17.6401-9.964c-1.0874-.60025-1.9331-.4802-2.5373.12004l15.1029 14.88596z" fill="url(#d)"/><path d="m32.705 29.0908-17.5193 9.844c-.9666.6002-1.8123.4802-2.4164 0l-.1209.12.1209.1201c.6041.4802 1.4498.6002 2.4164 0z" fill="#000" opacity=".2"/><path d="m12.6474 38.9346c-.3625-.3602-.4833-.9604-.4833-1.6807v.1201c0 .7202.2416 1.3205.6041 1.6806v-.12z" fill="#000" opacity=".12"/><path d="m38.7462 25.7296-6.0411 3.3613.1208.1201 5.9203-3.3614c.8458-.4802 1.2082-1.0804 1.2082-1.6807 0 .6003-.4832 1.0805-1.2082 1.5607z" fill="#000" opacity=".12"/><path d="m15.1846 9.28276 23.5605 13.32534c.7249.4802 1.2082.9604 1.2082 1.5607 0-.6003-.3625-1.2005-1.2082-1.6807l-23.5605-13.32539c-1.6915-.96039-3.0205-.12005-3.0205 1.80069v.1201c0-1.92079 1.329-2.76113 3.0205-1.80074z" fill="#fff" opacity=".25"/></svg>