<svg width="270" height="45" viewBox="0 0 270 45" fill="none" xmlns="http://www.w3.org/2000/svg">
<g id="logo_horizontal">
<g id="Group 2">
<g id="Group 5">
<path id="Fill 1" fill-rule="evenodd" clip-rule="evenodd" d="M101.694 32.0804H98.336V19.2839C98.336 15.7273 96.897 13.9494 94.0183 13.9494C91.4061 13.9494 89.5005 15.2191 88.3009 17.7597V32.0804H84.9427V18.2021C84.9427 16.9446 84.5562 15.9216 83.7838 15.1323C83.0107 14.3437 81.9575 13.9494 80.625 13.9494C79.2924 13.9494 78.1199 14.3774 77.1068 15.2334C76.0943 16.0887 75.3613 17.0651 74.9083 18.1612V32.0804H71.5501V11.2217H74.9083V14.029C75.5213 13.0677 76.3937 12.2848 77.5269 11.6826C78.6594 11.0811 79.9055 10.7808 81.2645 10.7808C84.2232 10.7808 86.2624 11.8633 87.3813 14.029C89.0075 11.8633 91.2861 10.7808 94.2184 10.7808C96.5369 10.7808 98.3625 11.3822 99.695 12.5859C101.028 13.7881 101.694 15.6743 101.694 18.2408V32.0804Z" fill="white"/>
<path id="Fill 3" fill-rule="evenodd" clip-rule="evenodd" d="M110.713 15.4737C109.527 16.5433 108.801 17.9606 108.534 19.7263H121.608C121.501 17.8803 120.895 16.443 119.789 15.4135C118.683 14.3833 117.196 13.8693 115.331 13.8693C113.438 13.8693 111.899 14.4041 110.713 15.4737ZM124.365 28.1504C122.446 31.0381 119.675 32.4826 116.05 32.4826C112.718 32.4826 110.04 31.4998 108.014 29.5333C105.988 27.5683 104.976 24.9409 104.976 21.6518C104.976 18.4695 105.902 15.8621 107.754 13.829C109.607 11.7973 112.212 10.7808 115.57 10.7808C118.342 10.7808 120.634 11.6504 122.446 13.3881C124.259 15.1266 125.166 17.4128 125.166 20.2474C125.166 21.1571 125.098 21.9995 124.966 22.7751H108.573C108.681 24.8341 109.427 26.4385 110.813 27.5884C112.199 28.7383 113.984 29.3132 116.17 29.3132C117.396 29.3132 118.549 29.0193 119.628 28.43C120.708 27.8422 121.567 27.0801 122.207 26.1445L124.365 28.1504Z" fill="white"/>
<path id="Fill 6" fill-rule="evenodd" clip-rule="evenodd" d="M141.974 27.8394C143.027 27.0106 143.793 26.1009 144.273 25.1116V16.6873C142.94 14.7352 141.008 13.7588 138.476 13.7588C136.424 13.7588 134.685 14.4686 133.259 15.8851C131.832 17.3032 131.12 19.1614 131.12 21.4619C131.12 23.7875 131.786 25.6399 133.119 27.0171C134.451 28.3935 136.17 29.0825 138.276 29.0825C139.688 29.0825 140.921 28.6681 141.974 27.8394ZM144.272 29.4448C143.819 30.1667 143.02 30.822 141.874 31.4098C140.728 31.9991 139.369 32.293 137.796 32.293C134.731 32.293 132.259 31.3295 130.38 29.4047C128.501 27.4791 127.562 24.8581 127.562 21.5425C127.562 18.3329 128.574 15.7062 130.6 13.6609C132.625 11.6142 135.118 10.5912 138.076 10.5912C140.848 10.5912 142.913 11.2737 144.272 12.6372V2.64941H147.631V31.9317H144.272V29.4448Z" fill="white"/>
<path id="Fill 9" fill-rule="evenodd" clip-rule="evenodd" d="M170.72 27.8285C169.946 29.2996 168.76 30.4423 167.161 31.2582C165.562 32.074 163.897 32.4819 162.164 32.4819C158.832 32.4819 156.147 31.499 154.108 29.5333C152.069 27.5683 151.05 24.9409 151.05 21.6518C151.05 18.5225 152.062 15.9281 154.088 13.8691C156.114 11.8095 158.739 10.7808 161.964 10.7808C163.83 10.7808 165.529 11.1686 167.061 11.9443C168.594 12.72 169.707 13.7487 170.399 15.0327L167.802 16.7969C166.415 14.8986 164.496 13.9494 162.044 13.9494C159.885 13.9494 158.106 14.6714 156.707 16.1152C155.308 17.5597 154.608 19.405 154.608 21.6518C154.608 23.9508 155.334 25.8033 156.787 27.207C158.239 28.6107 160.139 29.3125 162.484 29.3125C164.963 29.3125 166.908 28.2436 168.321 26.1044L170.72 27.8285Z" fill="white"/>
<path id="Fill 11" fill-rule="evenodd" clip-rule="evenodd" d="M177.918 27.1469C179.303 28.5914 181.09 29.3126 183.275 29.3126C185.487 29.3126 187.293 28.6043 188.693 27.187C190.092 25.7697 190.791 23.9244 190.791 21.6518C190.791 19.3779 190.078 17.5268 188.652 16.0959C187.227 14.665 185.434 13.9495 183.275 13.9495C181.116 13.9495 179.337 14.6585 177.938 16.0758C176.538 17.4931 175.839 19.3513 175.839 21.6518C175.839 23.8714 176.532 25.7023 177.918 27.1469ZM175.339 13.829C177.378 11.7973 180.024 10.7808 183.275 10.7808C186.553 10.7808 189.218 11.7973 191.27 13.829C193.323 15.8621 194.349 18.4695 194.349 21.6518C194.349 24.8068 193.316 27.4006 191.251 29.4329C189.186 31.4653 186.527 32.4819 183.275 32.4819C180.05 32.4819 177.411 31.4653 175.359 29.4329C173.306 27.4006 172.28 24.8068 172.28 21.6518C172.28 18.4695 173.3 15.8621 175.339 13.829Z" fill="white"/>
<path id="Fill 13" fill-rule="evenodd" clip-rule="evenodd" d="M225.087 27.8394C226.141 27.0106 226.906 26.1009 227.386 25.1116V16.6873C226.053 14.7352 224.121 13.7588 221.589 13.7588C219.537 13.7588 217.798 14.4686 216.372 15.8851C214.946 17.3032 214.233 19.1614 214.233 21.4619C214.233 23.7875 214.899 25.6399 216.232 27.0171C217.564 28.3935 219.283 29.0825 221.389 29.0825C222.802 29.0825 224.034 28.6681 225.087 27.8394ZM227.386 29.4448C226.933 30.1667 226.133 30.822 224.987 31.4098C223.841 31.9991 222.482 32.293 220.91 32.293C217.844 32.293 215.372 31.3295 213.493 29.4047C211.615 27.4791 210.675 24.8581 210.675 21.5425C210.675 18.3329 211.687 15.7062 213.713 13.6609C215.739 11.6142 218.231 10.5912 221.189 10.5912C223.961 10.5912 226.027 11.2737 227.386 12.6372V2.64941H230.744V31.9317H227.386V29.4448Z" fill="white"/>
<path id="Fill 16" fill-rule="evenodd" clip-rule="evenodd" d="M240.353 15.4737C239.167 16.5433 238.441 17.9606 238.174 19.7263H251.247C251.14 17.8803 250.534 16.443 249.428 15.4135C248.322 14.3833 246.836 13.8693 244.97 13.8693C243.078 13.8693 241.539 14.4041 240.353 15.4737ZM254.005 28.1504C252.086 31.0381 249.314 32.4826 245.69 32.4826C242.358 32.4826 239.679 31.4998 237.654 29.5333C235.628 27.5683 234.616 24.9409 234.616 21.6518C234.616 18.4695 235.542 15.8621 237.394 13.829C239.246 11.7973 241.851 10.7808 245.209 10.7808C247.982 10.7808 250.274 11.6504 252.086 13.3881C253.898 15.1266 254.805 17.4128 254.805 20.2474C254.805 21.1571 254.738 21.9995 254.605 22.7751H238.213C238.32 24.8341 239.066 26.4385 240.452 27.5884C241.838 28.7383 243.624 29.3132 245.81 29.3132C247.036 29.3132 248.188 29.0193 249.268 28.43C250.347 27.8422 251.206 27.0801 251.846 26.1445L254.005 28.1504Z" fill="white"/>
<path id="Fill 19" fill-rule="evenodd" clip-rule="evenodd" d="M258.104 11.2217H261.462V12.8261C261.809 12.1307 262.382 11.6159 263.181 11.2819C263.981 10.9471 264.834 10.7808 265.74 10.7808C267.579 10.7808 268.991 11.4088 269.978 12.6655L267.859 14.9925C267.352 14.2964 266.526 13.9494 265.38 13.9494C264.474 13.9494 263.655 14.2835 262.922 14.9517C262.189 15.6205 261.702 16.4894 261.462 17.559V32.0804H258.104V11.2217Z" fill="white"/>
<path id="Fill 19 Copy" fill-rule="evenodd" clip-rule="evenodd" d="M197.576 11.2217H200.934V12.8261C201.28 12.1307 201.853 11.6159 202.653 11.2819C203.453 10.9471 204.306 10.7808 205.212 10.7808C207.051 10.7808 208.463 11.4088 209.45 12.6655L207.331 14.9925C206.824 14.2964 205.998 13.9494 204.852 13.9494C203.946 13.9494 203.127 14.2835 202.394 14.9517C201.661 15.6205 201.174 16.4894 200.934 17.559V32.0804H197.576V11.2217Z" fill="white"/>
</g>
</g>
<g id="Group 7 Copy 2">
<path id="Path" fill-rule="evenodd" clip-rule="evenodd" d="M37.5764 0C31.6774 0 28.4331 3.39897 25.2475 7.50115C22.829 2.93008 18.8767 0.0586203 14.1575 0.0586203C5.54502 0.0586203 0 8.90765 0 15.7642C0 29.6531 12.2699 37.1543 25.4245 37.1543V43.2644C25.4245 44.5588 26.8042 45.3999 27.9619 44.8057C39.1447 39.0658 51.6202 26.723 51.675 15.9986C51.675 6.15327 45.422 0 37.5764 0Z" fill="white"/>
<path id="Path_2" fill-rule="evenodd" clip-rule="evenodd" d="M42.3303 17.3504H40.0987V19.5623C40.0987 20.784 39.0996 21.7743 37.8672 21.7743C36.6347 21.7743 35.6356 20.784 35.6356 19.5623V17.3504H33.404C32.1715 17.3504 31.1724 16.36 31.1724 15.1384C31.1724 13.9167 32.1715 12.9264 33.404 12.9264H35.6356V10.7144C35.6356 9.49274 36.6347 8.50244 37.8672 8.50244C39.0996 8.50244 40.0987 9.49274 40.0987 10.7144V12.9264H42.3303C43.5627 12.9264 44.5619 13.9167 44.5619 15.1384C44.5619 16.36 43.5627 17.3504 42.3303 17.3504Z" fill="#FE9B50"/>
</g>
</g>
</svg>
