<svg width="563" height="512" viewBox="0 0 563 512" fill="none" xmlns="http://www.w3.org/2000/svg">
<path d="M218.43 206.886H60.9968V37.0483L203.799 44.6618L218.43 206.886Z" fill="#D5D5F6"/>
<path d="M72.1172 34.7046L135.208 13.9961L207.896 34.7046" stroke="#F0F0F6" stroke-width="1.0366" stroke-miterlimit="10"/>
<path d="M214.334 32.6543H60.9968V202.492H214.334V32.6543Z" fill="#F0F0F6"/>
<path d="M135.91 16.6202C137.759 16.6202 139.258 15.1204 139.258 13.2703C139.258 11.4202 137.759 9.92041 135.91 9.92041C134.061 9.92041 132.563 11.4202 132.563 13.2703C132.563 15.1204 134.061 16.6202 135.91 16.6202Z" fill="#D5D5F6"/>
<path d="M555.489 0H282.526V436.483H555.489V0Z" fill="#D5D5F6"/>
<path d="M301.219 2.45996V280.397" stroke="white" stroke-width="2" stroke-miterlimit="10" stroke-linecap="round"/>
<path d="M536.809 2.46045V438.932" stroke="white" stroke-width="2" stroke-miterlimit="10" stroke-linecap="round"/>
<path d="M419.006 2.45947V438.931" stroke="white" stroke-width="2" stroke-miterlimit="10" stroke-linecap="round"/>
<path d="M536.807 110.513H301.219" stroke="white" stroke-width="2" stroke-miterlimit="10" stroke-linecap="round"/>
<path d="M431.66 58.9751C434.369 58.9751 436.565 56.7779 436.565 54.0674C436.565 51.3569 434.369 49.1597 431.66 49.1597C428.952 49.1597 426.756 51.3569 426.756 54.0674C426.756 56.7779 428.952 58.9751 431.66 58.9751Z" fill="white"/>
<path d="M406.366 58.9746C409.074 58.9746 411.27 56.7774 411.27 54.0669C411.27 51.3564 409.074 49.1592 406.366 49.1592C403.657 49.1592 401.461 51.3564 401.461 54.0669C401.461 56.7774 403.657 58.9746 406.366 58.9746Z" fill="white"/>
<path d="M455.925 489.425L319.783 350.791H11.8456L19.4305 348.226L0 339.664V350.791V354.797L104.269 473.601C125.163 497.414 155.303 511.059 186.977 511.059H512.66V499.932L455.925 489.425Z" fill="#7677DF"/>
<path d="M107.781 462.474L0 339.664H355.285L512.66 499.932H190.489C158.826 499.932 128.686 486.286 107.781 462.474Z" fill="#D5D5F6"/>
<path d="M86.1496 359.131L51.5142 339.664L23.2113 339.675C28.3615 354.516 39.9613 369.227 44.4678 372.085C60.1526 382.029 68.709 359.131 86.1496 359.131Z" fill="#B69BDA"/>
<path d="M142.042 449.226C158.152 449.226 171.211 445.581 171.211 441.085C171.211 436.589 158.152 432.945 142.042 432.945C125.933 432.945 112.873 436.589 112.873 441.085C112.873 445.581 125.933 449.226 142.042 449.226Z" fill="#B69BDA"/>
<path d="M210.435 184.445H356.445C368.852 184.445 378.918 174.383 378.918 161.956V161.476C378.918 149.06 368.864 138.987 356.445 138.987H210.435C198.028 138.987 187.961 149.048 187.961 161.476V161.956C187.973 174.372 198.028 184.445 210.435 184.445Z" fill="#7EE6CB"/>
<path d="M378.918 161.477C378.918 159.369 378.614 157.342 378.063 155.41C371.333 163.058 365.328 166.045 365.328 166.045L377.455 169.184C377.56 169.149 377.665 169.09 377.771 169.02C378.508 166.795 378.918 164.429 378.918 161.957V161.477Z" fill="#3EDAB2"/>
<path d="M364.709 162.109C372.165 167.122 388.436 165.634 388.436 165.634C378.791 177.383 368.092 184.024 357.546 184.434L364.709 162.109Z" fill="#7EE6CB"/>
<path d="M217.576 167.766C226.027 170.285 235.496 168.891 242.929 164.147C244.732 162.999 246.44 161.652 247.95 160.129C248.758 159.321 249.378 158.49 249.086 157.283C248.84 156.311 248.009 155.561 247.049 155.304C245.012 154.753 242.964 156.206 242.882 158.326C242.788 160.539 244.591 162.367 246.148 163.702C252.422 169.113 261.692 170.343 269.183 166.829C272.555 165.248 276.686 160.329 280.666 162.718C283.382 164.358 284.845 167.427 287.514 169.184C290.136 170.905 293.343 171.093 296.363 170.73C299.418 170.367 302.426 169.664 305.259 168.481C308.033 167.321 310.912 165.681 312.457 162.987C313.874 160.528 313.955 156.944 311.942 154.765C310.116 152.797 307.143 152.961 305.001 154.308C302.59 155.807 300.998 158.536 301.01 161.394C301.021 165.4 304.018 168.797 307.26 170.8C310.83 173.002 314.974 172.92 318.813 171.468C322.5 170.074 325.86 167.801 329.675 166.736C332.227 166.009 334.51 166.677 337.26 167.567C342.176 169.172 349.34 172.217 353.355 167.227C354.479 165.822 355.099 164.124 355.45 162.378C355.977 159.825 352.067 158.736 351.541 161.301C351.178 163.046 350.487 165.037 348.942 165.623C347.409 166.197 345.524 165.81 343.874 165.389C339.953 164.381 336.078 162.32 331.958 162.273C326.48 162.214 321.833 166.232 316.823 167.86C314.225 168.703 311.696 168.75 309.309 167.274C307.354 166.068 305.177 163.971 305.071 161.512C305.013 160.047 305.82 158.654 306.862 157.916C307.014 157.81 307.682 157.459 307.553 157.506C307.693 157.447 308.548 157.271 308.208 157.318C308.723 157.248 308.314 157.26 308.794 157.377C308.606 157.33 309.074 157.623 308.946 157.459C311.24 160.516 306.523 163.538 303.983 164.627C300.694 166.044 296.702 167.017 293.097 166.806C287.947 166.49 286.203 160.785 281.884 158.759C278.278 157.072 274.767 158.466 271.642 160.504C268.75 162.39 266.14 164.112 262.64 164.604C259.55 165.037 256.32 164.627 253.428 163.468C252.024 162.905 250.666 162.132 249.472 161.207C248.887 160.75 248.348 160.247 247.845 159.719C247.634 159.497 247.424 159.134 247.19 158.958C246.979 158.314 246.686 158.408 246.3 159.228C245.668 159.286 245.27 158.888 245.106 158.056C245.305 157.576 245.504 157.096 245.703 156.616C238.856 163.831 228.204 166.677 218.664 163.831C216.148 163.105 215.083 167.028 217.576 167.766Z" fill="#3EDAB2"/>
<path d="M281.508 457.788L216.193 383.364H305.433L378.508 457.788H281.508Z" fill="white"/>
<path d="M320.065 466.447L254.751 392.022H343.99L417.077 466.447H320.065Z" fill="#F0F0F6"/>
<path d="M200.122 367.729C200.122 367.729 253.849 343.026 258.765 343.026C272.577 343.026 269.932 320.221 258.063 299.325C245.48 277.199 212.296 216.233 202.604 202.564C194.808 191.554 183.478 180.286 170.895 177.639C160.875 175.531 116.326 167.179 91.4639 162.541C81.3975 160.667 75.9781 159.812 75.9781 159.812L106.306 334.64L200.122 367.729Z" fill="#F5A70D"/>
<path d="M140.051 173.282C136.739 174.114 135.264 186.623 129.786 186.295C124.308 185.967 118.034 166.582 114.593 163.619C111.151 160.656 99.0834 159.227 99.0834 159.227L140.051 230.289C147.074 214.676 150.972 189.68 149.567 173.844C149.567 173.844 143.364 172.45 140.051 173.282ZM124.121 191.062C124.062 190.992 124.004 190.922 123.945 190.852C124.085 190.91 124.214 190.957 124.355 191.004C124.273 191.016 124.191 191.039 124.121 191.062Z" fill="white"/>
<path d="M150.714 161.956C149.777 157.856 147.6 154.928 145.47 151.32C143.539 148.029 141.947 144.515 140.764 140.884C139.945 138.342 139.969 135.203 138.271 133.06C137.604 132.217 129.773 127.004 129.106 129.487C128.661 131.104 126.695 137.452 124.143 143.625C121.053 151.063 109.746 166.653 109.535 167.051C110.975 170.858 114.065 176.761 114.966 178.471C119.59 187.162 129.598 195.748 136.422 194.67C142.075 194.869 147.448 185.593 148.677 181.657C148.911 179.935 149.309 175.578 149.543 173.856C150.199 169.979 151.568 166.231 150.784 162.377C150.772 162.225 150.749 162.096 150.714 161.956Z" fill="#F5CDB8"/>
<path d="M252.512 349.866C253.987 349.421 295.598 337.064 295.598 337.064C295.598 337.064 301.041 324.707 302.071 322.2C303.101 319.694 302.598 316.473 298.841 317.492C294.709 318.604 250.417 330.716 250.417 330.716L242.82 348.39L252.512 349.866Z" fill="white"/>
<path d="M281.669 341.199L291.806 319.401C281.81 322.13 264.147 326.956 255.485 329.322C252.477 337.205 248.462 347.688 248.321 347.875C248.158 348.098 267.576 344.408 276.73 342.663C278.415 342.171 280.077 341.679 281.669 341.199Z" fill="#B69BDA"/>
<path d="M299.787 317.293C297.868 321.275 294.883 327.143 293.513 329.791C291.828 333.023 286.783 334.312 286.783 334.312C286.783 334.312 254.91 344.139 250.72 345.568L242.912 348.297L252.557 349.761C254.032 349.316 295.644 336.959 295.644 336.959C295.644 336.959 301.087 324.602 302.117 322.095C303.053 319.811 302.76 317.176 299.787 317.293Z" fill="#2E3649"/>
<path d="M168.6 215.204C172.802 225.897 175.495 237.165 178.866 248.129C182.822 261.025 187.282 273.956 193.977 285.716C197.524 291.947 201.761 297.85 206.993 302.781C208.632 304.327 211.125 301.856 209.475 300.298C200.181 291.537 194.153 279.777 189.459 268.052C184.636 256 181.136 243.49 177.461 231.051C175.799 225.417 174.137 219.748 171.983 214.278C171.175 212.182 167.769 213.095 168.6 215.204Z" fill="#FCBD2E"/>
<path d="M307.365 325.586C303.619 325.363 295.449 334.64 291.926 336.186C288.402 337.732 265.46 345.24 259.947 346.786C254.434 348.332 253.767 345.685 254.434 343.249C255.101 340.824 266.561 335.741 272.741 331.77C278.921 327.799 276.931 324.707 275.164 324.262C273.396 323.817 255.979 327.132 246.709 328.455C244.321 328.795 242.343 329.427 240.704 330.212C238.562 330.915 236.561 331.969 234.547 333C232.195 333.878 231.001 334.979 227.91 336.022C226.834 336.268 225.347 336.572 224.34 336.736L192.819 340.274L194.844 369.216L245.035 362.235C251.847 362.329 259.795 362.306 261.914 361.79C273.97 358.85 289.046 346.563 294.114 343.026C299.206 339.489 311.11 325.808 307.365 325.586Z" fill="#F5CDB8"/>
<path d="M224.34 336.738L206.478 338.436C206.478 338.436 212.331 316.474 201.211 315.01C190.091 313.546 176.337 318.817 164.047 321.452C155.935 323.198 135.662 328.187 116.021 332.873L96.216 197.201C96.1224 197.049 93.9687 181.635 89.1344 172.112C84.0076 162.882 77.4293 160.013 77.4293 160.013C68.8963 158.502 62.4702 160.669 56.1846 165.506C49.5595 170.601 45.0882 178.508 44.7136 187.644L38.7206 338.19C38.2173 352.129 38.0183 360.808 39.774 368.667L40.0667 369.874C41.1904 374.126 43.1685 377.885 46.2938 381.013C57.2615 391.988 84.8855 386.729 84.8855 386.729C84.8855 386.729 196.353 368.41 223.158 365.376C223.486 359.59 224.34 336.738 224.34 336.738Z" fill="#FCBD2E"/>
<path d="M87.038 355.71C93.9791 344.641 105.731 335.365 118.817 333.21C120.07 332.999 120.76 331.453 120.456 330.328C120.093 329.005 118.829 328.489 117.577 328.688C103.343 331.031 90.5261 341.327 82.9997 353.332C81.3961 355.909 85.4461 358.264 87.038 355.71Z" fill="#F5A70D"/>
<path d="M97.2437 317.294C100.03 318.688 102.769 320.198 105.273 322.073C105.32 322.108 105.718 322.412 105.449 322.213C105.601 322.33 105.753 322.459 105.917 322.588C106.233 322.846 106.538 323.103 106.83 323.361C107.474 323.935 108.106 324.532 108.703 325.153C110.014 326.523 110.962 327.73 111.98 329.264C112.671 330.318 114.052 330.764 115.188 330.108C116.241 329.499 116.721 327.964 116.03 326.898C113.842 323.572 111.173 320.726 108.012 318.313C105.402 316.31 102.546 314.717 99.6081 313.253C98.4727 312.69 97.0681 312.948 96.4009 314.096C95.804 315.127 96.1083 316.731 97.2437 317.294Z" fill="#F5A70D"/>
<path d="M152.236 161.172C152.119 161.044 140.437 150.806 140.168 150.326C139.512 150.619 138.037 155.527 139.969 160.809C140.531 162.156 141.42 163.656 142.193 164.862C144.077 167.814 145.927 169.207 148.127 170.636C148.947 171.175 149.637 171.421 150.012 171.585C150.539 168.634 151.276 165.553 151.709 163.117C151.768 162.707 152.212 161.559 152.236 161.172Z" fill="#F0AC94"/>
<path d="M171.409 100.954C171.011 100.849 166.528 99.6307 166.118 99.619C162.419 94.7347 155.865 92.5678 149.532 92.7786C140.777 93.0598 132.103 97.0304 130.874 106.565C130.418 110.114 130.956 113.698 130.839 117.27C130.675 118.852 130.511 120.433 130.336 122.014C129.669 126.524 128.334 130.787 129.259 135.344C130.148 139.677 133.824 140.111 135.79 144.023C138.611 149.598 141.807 154.155 145.939 158.664C151.428 164.661 157.234 167.449 164.468 161.393C171.702 155.338 171.409 100.954 171.409 100.954Z" fill="#F5CDB8"/>
<path d="M174.488 93.9154C171.889 93.1658 169.092 92.7793 167.067 92.463C164.269 92.0414 162.151 91.69 159.739 90.1907C155.127 87.3093 153.817 85.0253 147.905 86.3957C143.106 87.5084 138.764 90.0267 134.187 91.772C131.401 92.8378 128.803 94.5128 127.035 96.9491C125.034 99.7016 124.378 102.466 124.214 105.769C124.132 107.409 124.519 109.798 125.162 111.297C126.064 113.406 127.749 114.952 130.102 114.741C131.003 114.659 131.951 113.792 132.782 113.535C133.52 113.312 134.339 113.769 135.182 113.394C138.26 112.024 138.647 107.678 140.461 105.218C144.886 99.1863 150.75 104.926 155.081 107.983C159.493 111.098 163.871 112.27 169.22 111.309C173.469 110.548 178.643 108.603 180.703 104.492C183.875 98.2141 179.533 95.3678 174.488 93.9154ZM130.91 103.93C130.898 103.93 130.875 103.93 130.863 103.942C130.863 103.907 130.875 103.871 130.875 103.836C130.898 103.86 130.898 103.895 130.91 103.93Z" fill="#A0A0A0"/>
<path d="M161.577 151.086C160.5 150.922 159.002 150.043 157.679 148.591C157.106 147.959 155.561 146.143 154.554 145.206C158.101 145.85 161.565 146.776 165.159 146.729C166.844 146.705 166.868 147.818 165.978 149.013C165.44 149.751 164.48 150.594 163.86 150.84C163.239 151.086 162.654 151.25 161.577 151.086Z" fill="white"/>
<path d="M156.11 124.157C156.251 123.478 156.649 122.962 157.55 123.091C159.142 123.325 159.329 127.097 158.03 127.659C157.62 127.835 157.105 127.659 156.789 127.319C156.473 126.98 156.298 126.511 156.192 126.055C156.064 125.504 155.982 124.766 156.11 124.157Z" fill="#2E3649"/>
<path d="M167.325 124.404C167.524 123.807 167.934 123.385 168.718 123.585C170.134 123.948 169.935 127.368 168.706 127.743C168.32 127.86 167.875 127.649 167.618 127.309C167.36 126.97 167.255 126.536 167.208 126.103C167.149 125.599 167.149 124.932 167.325 124.404Z" fill="#2E3649"/>
<path d="M163.789 139.256C165.943 140.931 169.688 143.028 171.093 141.447C172.497 139.866 163.18 123.655 163.18 123.655L163.789 139.256Z" fill="#F0AC94"/>
<path d="M130.195 124.134C130.137 124.076 130.078 124.041 130.008 123.994C129.68 125.844 129.317 127.66 129.107 129.475C129.364 129.499 129.622 129.546 129.879 129.651C130.172 129.745 131.436 129.827 131.775 129.862C133.742 130.049 134.772 128.234 133.484 126.922C132.489 125.891 131.26 125.106 130.195 124.134Z" fill="#F0AC94"/>
<path d="M138.916 118.771C138.378 118.291 137.874 117.799 137.383 117.272C137.16 117.026 136.95 116.78 136.739 116.522C136.68 116.464 136.657 116.417 136.622 116.393C136.587 116.335 136.528 116.264 136.482 116.194C135.615 114.976 134.831 113.699 134.094 112.399C132.748 110.01 129.283 109.002 126.93 110.525C125.057 111.731 124.554 113.453 124.39 115.035C124.39 115.936 124.39 117.084 124.636 117.963C124.882 118.841 125.397 120.048 126.661 121.442C128.183 123.116 129.856 124.663 131.519 126.197C133.567 128.013 136.926 128.364 138.916 126.197C140.777 124.147 141.058 120.762 138.916 118.771Z" fill="#F5CDB8"/>
<path d="M139.947 106.002C140.181 105.452 137.079 107.396 135.967 107.607C135.077 107.009 128.651 108.848 130.36 109.739C134.457 111.859 132.959 116.954 134.703 119.847C135.37 120.96 137.067 120.725 137.43 119.495C137.992 117.563 138.027 115.993 138.191 113.99C138.39 111.741 138.999 108.204 139.947 106.002Z" fill="#A0A0A0"/>
<path d="M126.111 114.474C127.364 116.558 128.628 118.632 129.88 120.717C130.056 121.021 130.243 121.314 130.419 121.618C130.899 122.403 132.011 122.766 132.818 122.251C133.603 121.747 133.954 120.693 133.45 119.85C132.198 117.765 130.934 115.692 129.681 113.607C129.506 113.302 129.319 113.009 129.143 112.705C128.663 111.92 127.551 111.557 126.743 112.072C125.947 112.588 125.608 113.642 126.111 114.474Z" fill="#F0AC94"/>
<path d="M127.129 317.502C124.566 312.688 119.767 305.122 118.105 302.135C115.705 297.801 111.374 291.593 109.291 288.665L115.729 332.155C116.923 332.999 118.55 335.353 119.568 336.102C122.377 338.187 131.332 340.741 133.907 338.152C137.488 334.556 129.833 322.574 127.129 317.502Z" fill="#F5CDB8"/>
<path d="M164.046 321.45C155.935 323.195 135.662 328.185 116.02 332.87L113.715 369.181L177.215 346.34L164.046 321.45Z" fill="#FCBD2E"/>
<path d="M240.248 294.569C233.752 297.11 226.741 298.211 219.835 298.973C212.332 299.804 204.782 300.167 197.255 300.577C189.401 300.999 181.582 301.561 173.869 303.178C166.284 304.771 158.851 307.183 151.851 310.51C145.706 313.426 139.737 317.116 134.914 321.965C133.322 323.57 135.804 326.053 137.396 324.448C146.783 315.019 160.361 309.831 173.084 306.937C187.809 303.599 203.061 304.185 218.02 302.674C225.828 301.889 233.834 300.823 241.185 297.954C243.268 297.145 242.355 293.749 240.248 294.569Z" fill="#FCBD2E"/>
<path d="M166.458 308.052C176.174 297.908 180.095 282.927 181.078 269.247C181.441 264.14 180.926 258.939 180.376 253.856C179.673 247.355 178.702 240.866 177.496 234.436C176.419 228.685 175.284 222.852 173.353 217.323C172.615 215.203 169.221 216.117 169.97 218.26C171.597 222.91 172.615 227.783 173.587 232.597C174.816 238.758 175.822 244.966 176.572 251.209C177.215 256.526 177.765 261.914 177.66 267.267C177.543 273.1 176.419 279.05 174.909 284.661C172.838 292.309 169.525 299.782 163.989 305.569C162.408 307.197 164.89 309.691 166.458 308.052Z" fill="#FCBD2E"/>
<path d="M277.107 349.714C283.1 346.224 290.685 346.552 296.187 342.019C296.924 341.422 296.807 340.157 296.187 339.536C295.461 338.81 294.442 338.927 293.705 339.536C291.259 341.539 287.97 342.359 284.985 343.179C281.684 344.092 278.301 344.947 275.328 346.681C273.385 347.817 275.152 350.851 277.107 349.714Z" fill="#F0AC94"/>
<path d="M154.061 182.254C154.319 180.626 152.821 179.736 151.674 180.216C151.685 180.157 151.697 180.11 151.709 180.052C152.025 178.494 153.113 176.491 152.434 175.05C151.908 173.926 149.66 173.422 149.66 173.422C149.66 173.422 147.846 180.837 147.226 183.109C145.891 188.04 144.967 193.053 143.702 198.008C141.057 208.397 137.475 218.529 134.198 228.731C133.847 229.832 134.561 230.617 135.439 230.828C135.415 231.167 135.38 231.495 135.368 231.835C135.333 232.76 135.895 233.299 136.574 233.463C136.539 234.049 136.527 234.634 136.527 235.22C136.527 237.516 139.84 237.434 140.039 235.22C140.062 235.021 140.086 234.822 140.109 234.611C140.296 234.423 140.46 234.201 140.542 233.896C143.351 224.526 147.109 215.472 149.707 206.043C150.07 204.719 149.134 203.946 148.127 203.923C148.303 203.29 148.478 202.658 148.642 202.025C150.784 195.548 152.985 189.071 154.061 182.254Z" fill="#F5A70D"/>
<path d="M201.621 402.493C201.621 428.308 180.704 449.227 154.918 449.227C129.131 449.227 108.214 428.296 108.214 402.493H201.621Z" fill="#E97675"/>
<path d="M166.728 352.36C169.888 349.56 173.493 346.902 175.027 342.978C176.911 338.14 175.062 332.448 171.562 328.618C169.455 326.31 166.564 324.202 164.574 322.949C162.584 321.695 158.991 320.29 154.929 319.903C137.91 318.287 133.04 334.006 150.329 346.703C143.282 348.928 135.662 349.842 129.506 353.906C126.731 355.733 124.238 358.38 123.676 361.66C123.115 364.963 124.648 368.371 127.012 370.749C129.377 373.127 132.479 374.626 135.592 375.856C141.574 378.21 147.906 379.756 153.478 382.954C159.049 386.152 163.942 391.505 164.352 397.912C170.415 391.329 172.37 388.365 171.585 381.677C170.719 374.369 161.027 370.339 160.688 362.995C160.501 358.779 163.567 355.159 166.728 352.36Z" fill="white"/>
<path d="M144.874 341.843C146.361 343.483 148.175 345.123 150.34 346.704C155.771 345.497 160.383 341.714 156.825 335.213C153.664 339.114 150.387 341.398 144.874 341.843Z" fill="#F0F0F6"/>
<path d="M189.95 412.085H209.895C211.909 412.085 213.278 414.135 212.482 415.985C209.731 422.369 201.807 434.597 180.878 437.385C152.259 441.203 189.95 412.085 189.95 412.085Z" stroke="#E97675" stroke-width="4" stroke-miterlimit="10" stroke-linecap="round"/>
<path d="M487.458 175.941C478.328 163.747 485.176 150.043 487.458 124.146C489.741 98.2486 477.813 89.4873 466.529 91.6425C457.282 93.4111 450.938 102.746 452.612 110.664L452.881 111.859C452.706 111.976 452.53 112.082 452.355 112.21C448.071 115.221 452.167 122.342 456.486 119.285C461.18 115.982 466.494 114.003 472.089 113.757C476.865 124.076 453.911 147.174 450.927 165.774C448.539 180.602 441.797 199.542 457.013 216.303C467.782 228.157 488.98 223.917 499.643 211.735C510.295 199.554 496.588 188.122 487.458 175.941Z" fill="#2E3649"/>
<path d="M407.84 99.6783C404.996 101.74 402.538 104.164 400.431 106.975C400.173 107.315 400.15 107.936 400.255 108.334C400.372 108.744 400.677 109.189 401.063 109.388C401.473 109.599 401.964 109.716 402.421 109.564C402.889 109.412 403.181 109.142 403.474 108.756C403.533 108.674 403.591 108.604 403.65 108.522C403.778 108.346 403.427 108.803 403.626 108.557C403.743 108.404 403.872 108.252 403.989 108.1C404.235 107.795 404.492 107.491 404.75 107.198C405.253 106.624 405.78 106.062 406.33 105.535C406.88 104.996 407.442 104.481 408.027 103.989C408.332 103.731 408.636 103.485 408.94 103.239C409.116 103.098 408.94 103.239 408.858 103.298C408.94 103.239 409.011 103.18 409.093 103.122C409.268 102.993 409.444 102.864 409.619 102.735C410.006 102.454 410.298 102.15 410.427 101.681C410.544 101.26 410.485 100.697 410.251 100.322C409.771 99.5729 408.636 99.1043 407.84 99.6783Z" fill="black"/>
<path d="M412.476 98.6228C407.15 94.8161 401.426 98.8336 399.413 101.539C396.744 105.112 396.498 112.585 400.56 118.933C401.777 120.831 401.613 115.63 401.051 113.428C400.969 113.112 400.899 112.784 400.852 112.468C401.859 112.948 403.428 112.444 403.533 110.957C403.72 108.438 404.422 105.967 405.769 103.812C406.366 102.863 406.728 102.184 407.805 101.867C408.683 101.621 409.081 101.809 409.889 101.247C411.048 100.45 413.576 99.4193 412.476 98.6228Z" fill="#2E3649"/>
<path d="M464.517 175.425L448.68 171.875L450.716 186.657L462.855 186.95L464.517 175.425Z" fill="#B69BDA"/>
<path d="M395.702 148.169C394.976 148.052 394.122 147.83 393.853 147.139C393.665 146.635 393.677 145.909 394.098 145.569C397.271 143.039 398.148 138.202 399.857 134.254C400.993 135.191 400.56 136.304 400.642 137.78C400.77 139.935 400.911 142.102 401.04 144.257C401.098 145.124 402.877 145.733 402.62 146.565C401.824 149.153 397.68 148.497 395.702 148.169Z" fill="#5E2A1C"/>
<path d="M412.523 199.636L387.79 303.483L382.909 373.187L410.791 396.426L446.234 377.486L464.365 191.426L454.977 185.335L441.575 180.041L421.29 196.029L412.523 199.636Z" fill="#44B4C3"/>
<path d="M422.496 180.767C422.496 180.767 403.92 193.265 398.992 198.383C391.032 206.664 384.758 216.492 375.921 244.919C367.072 273.346 351.996 331.63 351.984 331.665C351.504 333.504 370.712 346.728 372.667 348.356C379.187 353.744 399.905 369.908 407.63 358.91C411.985 352.702 411.68 346.236 411.961 336.561C412.336 323.126 410.393 309.75 409.351 296.433C407.583 273.885 404.212 250.951 410.556 229.692C413.576 219.56 415.566 208.995 418.059 198.723C418.516 196.814 420.892 182.044 422.496 180.767Z" fill="white"/>
<path d="M367.54 254.428C365.936 246.861 361.195 235.757 357.684 229.011C356.045 224.794 353.88 220.73 351.644 216.759C350.872 215.377 348.905 215.798 348.437 217.181C347.863 218.856 347.852 220.156 348.273 221.854C348.694 223.529 349.069 225.005 349.362 226.481C346.47 223.072 344.211 220.648 343.158 219.535C346.307 214.932 347.758 211.992 346.412 211.066C345.066 210.153 340.068 213.76 340.068 213.76C340.068 213.76 347.711 204.636 346.002 202.621C344.293 200.607 341.227 203.02 338.57 204.847C339.447 201.509 340.278 197.011 338.172 195.558C336.065 194.118 330.47 203.523 328.819 207.178C327.169 210.832 324.266 215.88 324.559 218.34C324.851 220.788 325.717 223.634 325.717 223.634C325.717 223.634 321.386 229.959 321.152 233.18C320.918 236.402 329.381 245.011 332.846 251.043C336.31 257.075 338.464 265.028 336.825 278.545C350.673 278.463 370.922 276.003 370.922 276.003C371.695 271.857 370.642 263.142 367.54 254.428Z" fill="#8C4B2F"/>
<path d="M337.047 276.435L371.132 271.457C371.004 268.517 370.477 264.875 369.517 260.986L337.012 263.797C337.468 267.358 337.515 271.504 337.047 276.435Z" fill="#44B4C3"/>
<path d="M370.643 265.039L329.944 269.958C329.944 269.958 337.388 360.862 338.922 370.912C340.502 381.219 349.281 386.443 361.712 384.312C371.017 382.719 390.389 376.546 390.389 376.546L370.643 265.039Z" fill="white"/>
<path d="M323.026 232.067C323.787 229.783 325.847 228.799 327.181 228.659C331.149 228.26 333.42 228.178 337.388 227.792C338.442 227.686 339.706 227.675 340.314 228.53C340.853 229.291 340.56 230.392 339.916 231.06C339.273 231.727 338.371 232.055 337.493 232.36C336.077 232.864 332.987 234.117 330.939 234.96C329.745 235.452 329.089 236.741 329.394 237.982C329.546 238.603 329.733 239.235 329.944 239.692" stroke="#5E2A1C" stroke-width="2.2741" stroke-miterlimit="10" stroke-linecap="round"/>
<path d="M326.747 222.181C331.3 218.491 334.765 216.067 339.751 212.986" stroke="#5E2A1C" stroke-width="2.2741" stroke-miterlimit="10" stroke-linecap="round"/>
<path d="M343.063 220.026C340.594 222.65 338.124 225.274 335.654 227.886" stroke="#5E2A1C" stroke-width="2.2741" stroke-miterlimit="10" stroke-linecap="round"/>
<path d="M329.252 212.33C332.354 209.542 335.655 206.954 339.12 204.611" stroke="#5E2A1C" stroke-width="2.2741" stroke-miterlimit="10" stroke-linecap="round"/>
<path d="M374.563 266.469C375.043 270.299 376.167 274.012 377.349 277.678C378.8 282.176 380.416 286.615 381.996 291.078C385.215 300.179 387.767 309.479 389.756 318.92C391.149 325.491 391.395 332.038 389.85 338.621C389.335 340.823 392.718 341.76 393.233 339.558C394.626 333.666 394.766 327.751 393.841 321.789C392.928 315.909 391.184 310.193 389.815 304.407C387.79 295.857 384.407 287.693 381.598 279.377C380.193 275.207 378.625 270.873 378.075 266.481C377.794 264.255 374.271 264.22 374.563 266.469Z" fill="#F0F0F6"/>
<path d="M401.695 108.908C398.909 115.924 400.068 127.051 399.893 137.3C399.729 146.717 399.46 156.193 399.752 165.622C399.963 172.286 404.551 177.147 415.343 166.805C426.136 156.474 446.069 136.41 446.069 136.41C446.116 127.871 448.129 116.814 445.671 108.65C442.148 96.9253 430.958 94.4539 420.283 95.9649C414.793 96.7496 411.399 98.612 407.033 102.313C405.031 103.988 402.714 106.354 401.695 108.908Z" fill="#8C4B2F"/>
<path d="M412.37 160.784L418.515 207.976L423.9 217.404L463.861 189.656C460.455 184.327 452.39 171.138 451.43 160.198C450.353 147.947 450.166 139.056 450.166 128.901L412.37 160.784Z" fill="#8C4B2F"/>
<path d="M442.887 133.316L438.216 139.442L445.579 138.762L442.887 133.316Z" fill="#5E2A1C"/>
<path d="M413.389 168.608L414.805 179.524C420.178 173.867 425.035 159.437 425.035 159.437L413.389 168.608Z" fill="#5E2A1C"/>
<path d="M399.156 352.151C393.503 346.704 381.177 332.977 378.122 327.366C370.479 313.346 367.81 299.724 354.572 291.162C350.217 288.339 350.966 294.535 354.49 299.185C356.854 302.301 361.162 311.987 354.572 313.135C347.97 314.283 336.475 306.506 332.742 303.917C328.996 301.328 321.493 296.971 323.202 303.05C324.911 309.129 326.971 312.749 326.971 312.749C326.971 312.749 328.387 319.366 330.506 321.615C331.173 326.019 332.425 329.615 337.108 336.608C339.987 340.907 353.623 351.682 361.536 361.381C366.487 367.448 377.139 382.909 377.139 382.909L399.156 352.151Z" fill="#8C4B2F"/>
<path d="M365.749 373.094L381.235 389.434L405.839 358.933L388.574 340.884L365.749 373.094Z" fill="#44B4C3"/>
<path d="M328.656 311.227C333.923 316.65 338.102 320.609 345.113 323.432" stroke="#5E2A1C" stroke-width="2.6759" stroke-miterlimit="10" stroke-linecap="round"/>
<path d="M331.712 321.838C335.587 326.839 340.07 331.372 345.033 335.296" stroke="#5E2A1C" stroke-width="2.6759" stroke-miterlimit="10" stroke-linecap="round"/>
<path d="M420.341 95.2031C411.913 97.8268 407.992 100.287 403.965 104.409C404.386 105.019 404.866 105.71 405.358 106.553C411.222 116.743 423.747 122.635 430.149 124.134C436.037 125.505 443.037 123.314 442.334 130.459C441.831 135.496 447.098 144.397 450.352 145.662C450.352 145.662 456.24 135.543 457.961 126.617C460.243 114.811 458.019 103.578 451.675 98.2484C445.331 92.9191 430.114 92.1577 420.341 95.2031Z" fill="#2E3649"/>
<path d="M430.173 368.795L429.576 375.553L477.742 439.166L562.054 407.881C563.072 364.086 539.978 313.053 539.217 272.292C538.971 258.986 536.771 248.761 534.605 241.007C531.375 229.434 523.977 219.466 513.946 212.849L472.99 189.645L464.515 175.426C464.515 175.426 446.677 201.932 434.503 215.273C423.571 227.256 415.963 234.471 418.339 273.569C420.282 305.358 429.072 333.258 430.173 368.795Z" fill="white"/>
<path d="M461.028 347.594C465.523 339.711 471.621 332.999 477.954 326.569C483.888 320.548 490.782 314.868 495.078 307.488C497.279 303.705 498.941 299.383 498.274 294.944C497.934 292.718 494.551 293.667 494.891 295.881C495.429 299.418 493.58 303.166 491.824 306.106C489.799 309.48 487.201 312.267 484.462 315.067C478.363 321.286 471.984 327.26 466.377 333.96C463.264 337.684 460.408 341.608 457.996 345.825C456.873 347.781 459.904 349.55 461.028 347.594Z" fill="#F0F0F6"/>
<path d="M400.163 346.704L370.221 393.427C370.221 393.427 419.09 436.976 442.793 456.396C464.962 474.563 494.307 494.44 524.67 490.68C555.033 486.92 563.788 460.308 562.946 421.234C562.899 419.278 562.349 407.893 562.033 400.888L496.086 394.434L400.163 346.704Z" fill="white"/>
<path d="M513.83 217.826C501.785 223.202 491.262 233.826 496.6 290.188C502.452 352.162 485.948 389.971 485.948 389.971" stroke="#F0F0F6" stroke-width="3" stroke-miterlimit="10" stroke-linecap="round"/>
<path d="M457.995 313.311C448.994 313.182 442.814 305.322 444.195 295.765L449.439 259.783C450.82 250.225 459.248 242.576 468.249 242.717C477.25 242.846 483.431 250.705 482.049 260.263L476.806 296.245C475.424 305.791 467.008 313.44 457.995 313.311Z" stroke="#B9BAEF" stroke-width="2.5097" stroke-miterlimit="10" stroke-linecap="round"/>
<path d="M472.09 193.194C470.919 202.178 470.896 212.486 469.632 232.398" stroke="#7677DF" stroke-width="2.5097" stroke-miterlimit="10" stroke-linecap="round"/>
<path d="M481.675 262.196L483.431 249.945C484.812 240.387 478.643 232.527 469.63 232.399C460.629 232.27 452.201 239.907 450.82 249.464L448.901 262.876" stroke="#7677DF" stroke-width="2.5097" stroke-miterlimit="10" stroke-linecap="round"/>
<path d="M431.086 364.378L510.868 401.637" stroke="#F0F0F6" stroke-width="3" stroke-miterlimit="10" stroke-linecap="round"/>
<path d="M439.152 120.233C440.803 119.823 442.617 120.01 443.717 121.053C447.006 124.145 443.706 131.805 441.774 134.886C441.212 135.788 440.569 136.865 439.503 136.807C437.584 136.701 435.746 131.43 434.985 129.814C432.984 125.574 434.049 121.474 439.152 120.233Z" fill="#8C4B2F"/>
<path d="M439.97 129.369C441.012 127.472 442.065 125.574 443.107 123.677C443.505 122.962 443.306 121.943 442.545 121.545C441.819 121.158 440.836 121.346 440.415 122.107C439.373 124.005 438.319 125.902 437.278 127.8C436.88 128.514 437.079 129.533 437.84 129.931C438.577 130.318 439.549 130.13 439.97 129.369Z" fill="#5E2A1C"/>
<path d="M399.472 159.787C402.047 159.6 404.493 158.054 405.769 155.805C406.061 155.289 406.272 154.587 405.862 154.165C405.453 153.743 404.75 153.931 404.2 154.153C402.585 154.797 400.97 155.453 399.366 156.097" stroke="#E97675" stroke-width="2" stroke-miterlimit="10" stroke-linecap="round"/>
<path d="M438.766 214.512C444.151 219.454 447.674 226.049 453.07 231.003C454.065 231.917 455.598 231.519 456.008 230.23C458.208 223.296 460.339 216.28 463.23 209.58C466.016 203.162 469.586 197.176 473.753 191.566C475.099 189.75 472.056 187.993 470.721 189.797C466.484 195.525 462.844 201.627 460.034 208.187C457.096 215.05 454.872 222.184 452.613 229.293C453.597 229.036 454.568 228.778 455.551 228.52C450.167 223.577 446.644 216.983 441.248 212.028C439.586 210.494 437.092 212.977 438.766 214.512Z" fill="#F0F0F6"/>
<path d="M403.649 131.688C403.813 130.892 404.293 130.283 405.335 130.435C407.207 130.704 407.43 135.144 405.896 135.811C405.405 136.022 404.808 135.811 404.433 135.401C404.059 135.003 403.86 134.453 403.731 133.902C403.59 133.27 403.497 132.403 403.649 131.688Z" fill="#2E3649"/>
<path d="M276.358 297.745C300.277 297.745 319.667 278.342 319.667 254.407C319.667 230.472 300.277 211.069 276.358 211.069C252.439 211.069 233.049 230.472 233.049 254.407C233.049 278.342 252.439 297.745 276.358 297.745Z" fill="#B69BDA"/>
<path fill-rule="evenodd" clip-rule="evenodd" d="M302.789 288.726C296.41 287.496 289.246 286.032 284.869 284.837L278.7 297.686C287.76 297.194 296.059 293.926 302.789 288.726Z" fill="#936CC9"/>
<path fill-rule="evenodd" clip-rule="evenodd" d="M294.49 283.995L280.818 308.873C278.887 312.387 273.842 312.387 271.911 308.873L258.239 283.995H294.49Z" fill="#B69BDA"/>
<path d="M276.357 273.36V286.982" stroke="white" stroke-width="3" stroke-miterlimit="10" stroke-linecap="round"/>
<path fill-rule="evenodd" clip-rule="evenodd" d="M276.359 261.752C269.886 261.752 264.642 256.505 264.642 250.027V236.112C264.642 229.635 269.886 224.388 276.359 224.388C282.832 224.388 288.076 229.635 288.076 236.112V250.027C288.076 256.505 282.832 261.752 276.359 261.752Z" stroke="white" stroke-width="3" stroke-miterlimit="10" stroke-linecap="round"/>
<path d="M298.165 251.281C297.51 262.759 287.994 271.907 276.359 271.907C264.724 271.907 255.208 262.759 254.552 251.281" stroke="white" stroke-width="3" stroke-miterlimit="10" stroke-linecap="round"/>
<path d="M288.075 248.775H282.551" stroke="white" stroke-width="3" stroke-miterlimit="10" stroke-linecap="round"/>
<path d="M288.075 238.549H282.551" stroke="white" stroke-width="3" stroke-miterlimit="10" stroke-linecap="round"/>
<path d="M270.179 248.775H264.654" stroke="white" stroke-width="3" stroke-miterlimit="10" stroke-linecap="round"/>
<path d="M270.179 238.549H264.654" stroke="white" stroke-width="3" stroke-miterlimit="10" stroke-linecap="round"/>
<path d="M488.933 388.8C489.822 385.016 493.65 381.666 496.506 379.277C499.643 376.642 503.155 374.475 506.666 372.378C513.397 368.361 520.396 364.507 525.827 358.732C528.824 355.547 531.188 351.857 532.534 347.675C533.237 345.52 529.842 344.595 529.152 346.738C526.729 354.258 520.455 359.599 514.052 363.804C507.333 368.208 500.029 371.722 493.861 376.934C490.583 379.71 486.58 383.529 485.562 387.863C485.023 390.065 488.406 391.013 488.933 388.8Z" fill="#F0F0F6"/>
<path d="M393.818 254.101L401.485 210.985C402.176 207.108 403.65 203.501 405.746 200.327" stroke="#7677DF" stroke-width="2.5097" stroke-miterlimit="10" stroke-linecap="round"/>
<path d="M393.291 270.968C399.148 270.968 403.896 266.216 403.896 260.356C403.896 254.495 399.148 249.744 393.291 249.744C387.434 249.744 382.686 254.495 382.686 260.356C382.686 266.216 387.434 270.968 393.291 270.968Z" fill="#BDBEF0"/>
<path d="M393.293 266.693C396.79 266.693 399.625 263.856 399.625 260.357C399.625 256.857 396.79 254.02 393.293 254.02C389.795 254.02 386.96 256.857 386.96 260.357C386.96 263.856 389.795 266.693 393.293 266.693Z" fill="#D5D5F6"/>
<path d="M413.693 210.293C412.159 206.416 410.638 202.516 408.367 199.002C407.98 198.393 407.126 197.913 406.389 198.194C402.257 199.775 399.12 202.891 395.515 205.339C394.73 205.866 394.379 206.885 394.882 207.74C395.339 208.513 396.498 208.899 397.282 208.372C400.571 206.135 403.556 203.019 407.325 201.579C406.67 201.309 406.002 201.04 405.347 200.771C407.454 204.038 408.893 207.623 410.321 211.219C410.673 212.097 411.492 212.718 412.487 212.448C413.306 212.226 414.044 211.183 413.693 210.293Z" fill="#F0F0F6"/>
<path d="M205.05 367.132C206.162 359.273 207.274 351.402 208.386 343.542C208.538 342.43 208.702 341.305 208.854 340.192C209.03 338.939 208.55 337.674 207.216 337.311C206.115 337.006 204.512 337.686 204.336 338.951C203.224 346.81 202.112 354.681 201 362.541C200.848 363.653 200.684 364.778 200.532 365.891C200.356 367.144 200.836 368.409 202.171 368.772C203.271 369.076 204.875 368.397 205.05 367.132Z" fill="#F5A70D"/>
<path d="M149.534 123.959C149.534 123.959 140.24 114.12 137.735 112.011C134.071 108.919 131.051 108.79 130.361 109.739" stroke="#2E3649" stroke-miterlimit="10" stroke-linecap="round"/>
<path d="M154.881 131.924C158.475 131.924 161.389 129.009 161.389 125.412C161.389 121.815 158.475 118.9 154.881 118.9C151.287 118.9 148.373 121.815 148.373 125.412C148.373 129.009 151.287 131.924 154.881 131.924Z" stroke="#2E3649" stroke-miterlimit="10"/>
<path d="M171.409 131.924C175.004 131.924 177.917 129.009 177.917 125.412C177.917 121.815 175.004 118.9 171.409 118.9C167.815 118.9 164.901 121.815 164.901 125.412C164.901 129.009 167.815 131.924 171.409 131.924Z" stroke="#2E3649" stroke-miterlimit="10"/>
</svg>
