<?xml version="1.0" encoding="utf-8"?>
<!-- Generator: Adobe Illustrator 21.1.0, SVG Export Plug-In . SVG Version: 6.00 Build 0)  -->
<svg version="1.1" id="Слой_1" xmlns="http://www.w3.org/2000/svg" xmlns:xlink="http://www.w3.org/1999/xlink" x="0px" y="0px"
	 width="520px" height="547.1px" viewBox="0 0 520 547.1" style="enable-background:new 0 0 520 547.1;" xml:space="preserve">
<style type="text/css">
	.st0{fill:#F0F0F6;}
	.st1{fill:#A2A3E9;}
	.st2{fill:#8889E3;}
	.st3{fill:#F5CDB8;}
	.st4{fill:#F0AC94;}
	.st5{fill:#44B4C3;}
	.st6{fill:#FFFFFF;}
	.st7{fill:#BDBEF0;}
	.st8{fill:#B9BAEF;}
	.st9{fill:none;stroke:#7677DF;stroke-width:1.1759;stroke-linecap:round;stroke-miterlimit:10;}
	.st10{fill:#7677DF;}
	.st11{fill:#D5D5F6;}
	.st12{fill:#2E3649;}
	.st13{fill:none;stroke:#F0AC94;stroke-linecap:round;stroke-miterlimit:10;}
	.st14{fill:#FCBD2E;}
	.st15{fill:#F5A70D;}
	.st16{fill:#FDD16D;}
	.st17{fill:#E97675;}
	.st18{fill:#B69BDA;}
	.st19{fill:none;stroke:#7674E2;stroke-width:6;stroke-linecap:round;}
</style>
<circle class="st0" cx="201.6" cy="214.4" r="104.5"/>
<circle class="st0" cx="415.6" cy="215.2" r="103.7"/>
<circle class="st0" cx="309" cy="175.5" r="143.4"/>
<rect x="199.1" y="257.8" class="st0" width="219" height="61"/>
<path class="st1" d="M171.3,95.3c18.6,0,33.6-15.1,33.6-33.7S189.9,28,171.3,28s-33.6,15.1-33.6,33.7S152.8,95.3,171.3,95.3z"/>
<path class="st2" d="M184.3,84.3c-0.4-1.1-1.8-1.8-3.1-1.1c-4.9,3.1-9,7-12.1,11.7c0.7,0,1.3,0,2.2,0c3.6,0,7.2-0.7,10.5-1.8
	c0.2-0.2,0.2-0.2,0.4-0.4c0.9-1.1,0.7-2.2,0-2.9c0.9-0.7,1.8-1.6,2.7-2.2C186.3,86.6,185.7,85,184.3,84.3z"/>
<path class="st3" d="M157,144.7c3.4,6.5,7.6,11.9,13.4,10.8c4.5,29.6,11,79.1,44.6,101.1c20.8,13.5,34.7,3.8,40.8-3.4l-23.5-54.8
	l-7.4,13c0,0-9-27.9-13.9-41.6s-19.3-51.7-20.8-57.5c-1.6-5.8-3.8-21.8-3.8-24.3c-0.2-2-0.2-4-0.9-4.9c-1.6-1.8-3.8-0.2-4.9,1.6
	c-1.1,1.8-2.5,7.4-2.5,10.6c-0.2,6.1,0.4,13.5,1.6,18.9c-1.1,0.9-2,1.8-3.1,2.7c-4.3,3.4-8.5,6.7-12.8,10.1
	C157.2,131.7,152.9,136.9,157,144.7z"/>
<path class="st4" d="M177.7,128.4c0.6,0.1,1.1,0.6,1,1.2c-0.1,1,0.3,2.1,1,3.4c0.6,1.1,1.3,2.2,2,3.3c0.2,0.3,0.4,0.5,0.5,0.8
	c0.9,1.4,1.8,2.8,2.2,4.2c0.5,1.4,0.5,3-0.6,4.4c-0.9,1.1-1.9,1.7-3,1.8s-2.1-0.2-3-0.7c-1.7-1-3.1-2.7-3.9-3.9l0,0
	c-1.3-1.9-2.5-4.3-3.5-6.2c-0.5-1-0.9-1.8-1.1-2.4c-0.1-0.3-0.2-0.6-0.3-0.7l-0.1-0.2v-0.1l0,0c-0.2-0.6,0-1.2,0.6-1.5
	c0.6-0.2,1.2,0,1.5,0.6l0,0l0,0l0,0l0.1,0.2c0.1,0.2,0.2,0.4,0.3,0.7c0.3,0.6,0.6,1.4,1.1,2.4c0.9,1.9,2.1,4.2,3.3,5.9
	c0.8,1.1,1.9,2.5,3.2,3.2c0.6,0.3,1.1,0.5,1.6,0.4c0.4-0.1,0.9-0.3,1.5-1l0,0c0.5-0.6,0.5-1.2,0.2-2.2c-0.3-1.1-1.1-2.3-2-3.7
	c-0.2-0.2-0.3-0.5-0.5-0.8c-0.7-1.1-1.5-2.3-2.2-3.5c-0.8-1.5-1.4-3.1-1.2-4.7C176.5,128.8,177.1,128.3,177.7,128.4z"/>
<path class="st4" d="M163.5,137.4c0.6-0.2,1.2,0.1,1.4,0.7c1.1,3,3.5,7.8,7.4,11.7c0.8,0.8,1.5,1.1,2.1,1.2c0.6,0.1,1.1-0.1,1.6-0.4
	c1-0.7,1.7-2.2,1.5-3.4c-0.1-0.6,0.3-1.2,1-1.3c0.6-0.1,1.2,0.3,1.3,1c0.3,2.1-0.7,4.4-2.5,5.6c-0.9,0.6-2,1-3.2,0.8
	c-1.2-0.1-2.4-0.8-3.4-1.8c-4.2-4.2-6.7-9.3-7.9-12.5C162.7,138.2,163,137.6,163.5,137.4z"/>
<path class="st4" d="M158.7,146c0.6-0.3,1.2-0.1,1.5,0.5c0.6,1.2,1.7,2.7,2.8,3.9c1.2,1.3,2.3,2.2,3.1,2.5c0.9,0.4,2.4,0.8,3.9,0.7
	s2.4-0.5,2.7-1.4c0.2-0.6,0.8-0.9,1.4-0.7c0.6,0.2,0.9,0.9,0.7,1.4c-0.8,2.2-2.9,2.9-4.7,2.9c-1.8,0.1-3.7-0.4-4.9-0.9
	s-2.6-1.7-3.9-3.1c-1.3-1.3-2.4-2.9-3.2-4.4C157.9,146.9,158.2,146.3,158.7,146z"/>
<path class="st5" d="M203.8,149.9l-35.6,15.5l4.3,15l36.5-17.1L203.8,149.9z"/>
<path class="st6" d="M207.2,158.9L167.3,176l18.8,52.6c0,0,6.9,19.8,12.8,35.5c7.6,20.4,31.4,37.5,65.4-4.9
	c21.3-27-5.6-80.6-22.9-86.7c-7.8,19.1-15,35.5-15,35.5L207.2,158.9z"/>
<path class="st0" d="M226.5,205.2c0.6-0.2,1.2,0.1,1.4,0.7l9.2,28.3c0.2,0.6-0.1,1.2-0.7,1.4c-0.6,0.2-1.2-0.1-1.4-0.7l-9.2-28.3
	C225.6,206,225.9,205.4,226.5,205.2z"/>
<path class="st7" d="M327.7,113.3l4.7-15.9h-12.8L327.7,113.3z"/>
<path class="st6" d="M230.2,200l21.7-58.8c2.5-6.5,3.6-12.1,14.6-15.7l23.1-15.9l37.9-0.4l30.7-4.3c0,0,4.9,2.9,22.6,39.5
	c9,18.2,13.7,38,17.7,49.2s25.3,61.5,13.9,69L268.1,266L230.2,200z"/>
<path class="st0" d="M260.5,138.9c0.6,0,1.1,0.5,1.1,1.1c0.4,32.1,2.2,63.9,5.1,96c0.1,0.6-0.4,1.2-1,1.2s-1.2-0.4-1.2-1
	c-2.9-32.1-4.7-64.1-5.2-96.2C259.3,139.4,259.8,138.9,260.5,138.9z"/>
<path class="st5" d="M297,131.9l-11-10.6v-0.7l-4.3,0.7L275,265.6l54-1.3l-1.8-146L297,131.9z"/>
<path class="st6" d="M304.6,150.6v95.7l59.8-13.3L346,151.5L304.6,150.6z"/>
<path class="st8" d="M330.2,165.6c-9.8,0.9-17.4,8.1-17.4,15.8l0,0l-0.4,32.6c-0.2,7.7,7.1,13.7,16.7,13c9.6-0.9,17.2-7.9,17.4-15.8
	l0.4-32.6C347.2,170.9,339.8,165,330.2,165.6z M349.6,178.7c0.2-9.8-9-16.4-19.6-15.7l0,0c-10.8,0.9-19.8,9-19.8,18.4l-0.4,32.6
	c-0.2,9.8,9,16.4,19.5,15.7l0,0c10.6-0.9,19.5-8.7,19.8-18.4L349.6,178.7z"/>
<path class="st9" d="M330.1,118.2l-0.2,36.8"/>
<path class="st10" d="M329.6,153.8c10.6-0.7,19.6,6.2,19.6,15.7v11c0,0.7-0.6,1.3-1.3,1.3c-0.7,0-1.3-0.6-1.3-1.3v-11
	c0-7.6-7.2-13.7-16.7-13.1c-9.6,0.6-17.2,7.8-17.4,15.8v12.1c0,0.7-0.6,1.3-1.3,1.3c-0.7,0-1.3-0.6-1.3-1.3v-12.1l0,0
	C310,162.5,319,154.5,329.6,153.8z"/>
<path class="st10" d="M296,116.7c0.2,0.6-0.1,1.2-0.7,1.4l-8.3,3.1c-7.9,3-13.7,10.1-14.7,18.4l0,0l0,0l-4.9,36.8
	c-0.1,0.6-0.6,1-1.3,1c-0.6-0.1-1-0.6-1-1.3l4.9-36.8l0,0c1.2-9.2,7.5-16.9,16.2-20.2l8.3-3.1C295.2,115.8,295.8,116.1,296,116.7z"
	/>
<path class="st7" d="M266.1,190.6c4.9,0,9-4,9-9s-4-9-9-9c-4.9,0-9,4-9,9C257.1,186.5,261.1,190.6,266.1,190.6z"/>
<path class="st11" d="M266.1,187c3,0,5.4-2.4,5.4-5.4s-2.4-5.4-5.4-5.4s-5.4,2.4-5.4,5.4S263.1,187,266.1,187z"/>
<path class="st4" d="M261.1,80.7c-0.9-0.2-2-0.4-2.5-1.3c-0.2-0.7,0-1.3,0.4-2c2.5-5.2,4.9-10.3,7.2-15.5c1.6,1.3,1.6,3.4,1.8,5.4
	c0,2.9,0.2,5.6,0.2,8.5c0,1.1,0,2.2-0.2,3.4C267,82.5,263.8,81.2,261.1,80.7z"/>
<path class="st3" d="M268.1,43.2l29.6-1.8l6.7,27.2l23.5,40.2c1.8,2.7,1.8,6.1,0.2,9L297,131.9l-11-10.3l-4.5-20.7
	c-5.2,2.9-10.3,3.6-15-0.7C258.7,93.1,263.8,63.2,268.1,43.2z"/>
<path class="st4" d="M299.5,75.6c0.2,1.1,1.1,1.8,2.2,2s2.7-0.2,4-2.5c1.8-2.9,2.5-4.9-0.2-6.7C301,65.7,298.8,71.7,299.5,75.6z"/>
<path class="st4" d="M281.3,100c3.8-5.8,8.3-12.8,8.3-13.5c0,0,7.2,6.1,3.1,15.7c-1.8,4.5-5.8,6.3-9.6,6.7L281.3,100z"/>
<path class="st12" d="M268.1,62.5c0.2-0.7,0.4-1.1,1.3-1.1c1.6,0.2,1.8,4,0.4,4.5c-0.4,0.2-0.9,0-1.3-0.5c-0.4-0.4-0.4-0.9-0.7-1.3
	C267.9,63.9,267.9,63.2,268.1,62.5z"/>
<path class="st12" d="M312.5,34.9c-4.5-3.4-11.2-4.5-16.8-4c-6,0.4-11.6,5.2-17.9,3.6c-4-0.9-9.4-3.8-13.2-0.9
	c-3.1,2.5-4.5,6.1-4.7,9.9c-0.4,7,2.9,16.8,11.4,12.4c2-1.1,3.6-2.7,5.4-3.8c10.8-6.7,10.3,13,10.8,19.1c0.2,2.2,0.2,4.5-0.2,6.7
	c-0.7,3.1-2.7,6.5-6,7.2c-2,0.4-4,0-6-0.7c-1.1-0.5-2-1.1-2.9-1.8c-1.1-0.9-1.3-1.3-3.1-1.8c-2-0.4-4.7,0.2-6.7,0.4
	c-0.2,1.8-0.2,2.9-0.2,4.5c0,1.8,0,3.6,0.2,5.2c0.2,5.2,1.3,10.3,5.6,13.3c5.2,3.8,11.9,1.8,16.4-2c5.2-4.5,7.8-11.2,9-18
	c0.9-6.1,1.1-12.6,0-18.6c2.9,2.2,5.8,4.7,8.7,7c2.7,2.2,4.9,5.4,7.6,7.9c0.4,0.4,0.9,0.9,1.3,0.9c0.4,0.2,1.1,0.2,1.6-0.2
	c0.4-0.4,0.4-1.1,0.2-1.8c-0.2-2.2-0.9-4.7,0-6.7c0.9-2.2,1.8-4.5,2.7-6.7c1.3-3.1,3.6-6.7,4-10.3C320.7,47.9,318.5,39.4,312.5,34.9
	z"/>
<path class="st3" d="M296.5,60.7c1.6-0.7,3.4-0.9,4.7,0c3.8,2.5,2,10.8,0.7,14.4c-0.4,0.9-1.1,2-2.2,2.2s-2-0.9-2.7-1.8
	c-1.6-2.5-4.5-8.5-3.8-11.7C293.9,62.5,295.2,61.4,296.5,60.7z"/>
<path class="st4" d="M297,67.9c0.9-1.6,2-3.4,2.9-4.9s-1.3-2.7-2.2-1.3c-0.9,1.6-2,3.4-2.9,4.9C293.9,67.9,296.1,69.3,297,67.9z"/>
<path class="st6" d="M262.3,84.5c2,0,6.5-0.9,6.5-0.9s-3.4,4.7-6.3,5.6C262.3,85.7,262.3,84.5,262.3,84.5z"/>
<path class="st3" d="M223.5,295c-2,0-5.2-0.2-6.7-1.1c-1.6-0.9-1.8-4.5-0.4-6.3c0.9-1.1,2.2-1.3,3.6-1.8c0-1.1-0.2-2.5,0.9-4.9
	c1.1-2.5,4.7-3.8,7.2-4.5c-0.2-2,1.8-5.2,5.2-7.4c8.1-4.9,23.3-9.9,32.9-12.1c4-0.9,8.7-1.8,12.3,0.2c4.5,2.7,5.2,9,5.2,14.1
	c-0.2,4.9-0.7,9.9-2.7,14.4c-4.5,9.4-8.7,9.4-8.7,9.4S235.4,295.4,223.5,295z"/>
<path class="st5" d="M281.1,245.6h-15.7v49.9h15.7V245.6z"/>
<path class="st6" d="M427.1,232.6c-14.1-31-21.5-29-42.3-101.3c-6-21.8-18.8-31-27.6-25.8c-13,7.4-3.6,32.3,0,50.3
	c8.1,41.5,0.7,80.6,0.7,80.6l-83.1,7.4v51.7c0,0,79.1,0,98.3,0s43,6.7,53.5-2.5C445.7,275.7,439,258.6,427.1,232.6z"/>
<path class="st0" d="M358.9,105.3c0.5,0.4,0.5,1.1,0.1,1.6c-4.5,5.1-6.4,12-6.8,20.2c-0.4,8.3,0.9,17.8,2.5,28.3
	c2.1,12.3,3.3,24.7,4.6,37c0.1,1.1,0.2,2.2,0.3,3.3c1.4,13.4,2.8,26.8,5.4,40c0.1,0.6-0.3,1.2-0.9,1.3s-1.2-0.3-1.3-0.9
	c-2.6-13.3-4-26.8-5.4-40.2c-0.1-1.1-0.2-2.2-0.3-3.3c-1.3-12.3-2.5-24.7-4.6-36.9l0,0c-1.7-10.4-2.9-20.2-2.6-28.7
	c0.4-8.5,2.4-15.9,7.3-21.6C357.7,104.9,358.4,104.9,358.9,105.3z"/>
<path class="st6" d="M304.6,150.6l25.1,10.1l12.5-49.9l-9.6-13.5L304.6,150.6z"/>
<path class="st0" d="M342.3,110.9c0.6,0.2,1,0.8,0.8,1.4L330.8,161c-0.1,0.3-0.3,0.6-0.6,0.7c-0.3,0.1-0.6,0.2-0.9,0l-23.3-9.2
	c-0.6-0.2-0.9-0.9-0.6-1.5s0.9-0.9,1.5-0.6l22.1,8.7l12-47.5C341.1,111.1,341.7,110.7,342.3,110.9z"/>
<path class="st6" d="M304.6,150.6l28-53.2l0.9,20L304.6,150.6z"/>
<path class="st0" d="M338.2,237.2c12.3-1.1,25.2-2.3,37.3-1.1l0,0l0,0c4.8,0.7,10,2.3,13.8,5.7c0.5,0.4,0.5,1.1,0.1,1.6
	s-1.1,0.5-1.6,0.1c-3.3-2.9-8-4.5-12.6-5.1c-11.8-1.2-24.4,0-36.7,1.1c-3.9,0.3-7.7,0.7-11.5,1l0,0c-17.5,1.1-33.8,2.7-52.1,5.2
	c-0.6,0.1-1.2-0.3-1.3-1c-0.1-0.6,0.3-1.2,1-1.3c18.4-2.5,34.8-4,52.3-5.2C330.6,237.9,334.4,237.6,338.2,237.2z"/>
<path class="st6" d="M263.4,127.9l-1.1,9.2l12.8-14.6l1.8-1.1l1.1-2l5.8-9.7l-0.9-3.8l-8.5,7.2L263.4,127.9z"/>
<path class="st7" d="M281.1,133.7l5.4-12.1l-2.7-12.1l-6,9.7L281.1,133.7z"/>
<path class="st6" d="M171.3,74.9c-1.7,0-3.1,1.4-3.1,3.1s1.4,3.1,3.1,3.1c1.7,0,3.1-1.4,3.1-3.1C174.5,76.3,173,74.9,171.3,74.9z
	 M165.9,78c0-3,2.4-5.4,5.4-5.4s5.4,2.4,5.4,5.4s-2.4,5.4-5.4,5.4C168.3,83.4,165.9,81,165.9,78z"/>
<path class="st6" d="M171.3,40.1c-1.9,0-3.6,1.6-3.6,3.6c0,0.2,0.1,0.8,0.2,1.6c0.1,0.8,0.3,1.8,0.5,2.9c0.4,2.3,1,5,1.6,7.7
	c0.4,2,0.9,4,1.3,5.7c0.4-1.7,0.8-3.6,1.3-5.7c0.6-2.7,1.2-5.5,1.6-7.7c0.2-1.1,0.4-2.1,0.5-2.9c0.1-0.8,0.2-1.3,0.2-1.6
	C174.9,41.6,173.2,40.1,171.3,40.1z M171.3,66.6c-1.1,0.3-1.1,0.3-1.1,0.3L170,66c-0.1-0.6-0.3-1.4-0.5-2.3c-0.4-1.9-1-4.6-1.6-7.3
	s-1.2-5.5-1.6-7.8c-0.2-1.1-0.4-2.2-0.5-3s-0.2-1.5-0.2-1.9c0-3.3,2.8-5.8,5.8-5.8s5.8,2.5,5.8,5.8c0,0.4-0.1,1.1-0.2,1.9
	c-0.1,0.8-0.3,1.9-0.5,3c-0.4,2.3-1,5.1-1.6,7.8s-1.2,5.3-1.6,7.3c-0.2,1-0.4,1.8-0.5,2.3l-0.2,0.9
	C172.4,66.8,172.4,66.8,171.3,66.6z M171.3,66.6l1.1,0.3c-0.1,0.5-0.6,0.9-1.1,0.9s-1-0.4-1.1-0.9L171.3,66.6z"/>
<path class="st0" d="M278,119c0.4,0.1,0.7,0.4,0.8,0.9l2.5,12.6c0.1,0.6-0.3,1.2-0.9,1.3s-1.2-0.3-1.3-0.9l-2-10.4l-11.9,13.2
	c-0.4,0.5-1.1,0.5-1.6,0.1s-0.5-1.1-0.1-1.6l13.4-14.8C277.2,119,277.6,118.8,278,119z"/>
<path class="st13" d="M220.2,285.8c0,0,13-2.5,20.6-3.6"/>
<path class="st13" d="M228.9,275.7c12.8-4.3,23.5-6.7,23.5-6.7"/>
<path class="st0" d="M377.9,221.8c0.5,0.4,0.5,1.1,0.1,1.6c-4.1,4.7-8.3,9.3-12.8,13.8c-0.4,0.4-1.1,0.4-1.6,0
	c-0.4-0.4-0.4-1.1,0-1.6c4.5-4.5,8.7-8.9,12.7-13.6C376.7,221.5,377.5,221.4,377.9,221.8z"/>
<path class="st4" d="M182,117.5c2.1-0.1,4.3,0.1,5.8,0.9c2.8,1.5,4.6,3.4,5.7,4.9c0.5,0.7,0.9,1.4,1.2,1.9c0.1,0.2,0.2,0.4,0.3,0.6
	c0,0.1,0.1,0.1,0.1,0.2v0.1l0,0l0,0l0,0c0,0,0,0-1.1,0.4l1.1-0.4c0.2,0.6-0.1,1.2-0.7,1.4c-0.6,0.2-1.2-0.1-1.4-0.7l0,0
	 M192.9,126.7L192.9,126.7L192.9,126.7L192.9,126.7c0-0.2-0.1-0.3-0.2-0.5c-0.2-0.4-0.5-0.9-0.9-1.5c-0.9-1.3-2.5-2.9-5-4.3l0,0
	c-1-0.5-2.6-0.8-4.6-0.6c-1.9,0.1-4,0.6-5.6,1.3l0,0c-1.1,0.4-2.6,1.1-3.8,2s-1.7,1.9-1.6,2.8c0.2,1.4,0.6,1.9,1.1,2.1
	c0.6,0.3,1.4,0.4,2.9,0.3c0.5,0,1.2-0.3,2.1-0.7c0.1,0,0.2-0.1,0.4-0.2c0.7-0.3,1.6-0.7,2.4-0.9c1-0.3,2.1-0.4,3.3,0.1
	c1.1,0.5,2,1.5,2.6,3c0.1,0.2,0.1,0.5,0,0.8c-1.1,3.7-0.4,7.2,0.6,9.8c0.5,1.3,1.1,2.4,1.6,3.1c0.2,0.4,0.4,0.6,0.6,0.8
	c0.1,0.1,0.1,0.2,0.2,0.2l0,0l0,0l0,0c0.4,0.5,0.3,1.2-0.2,1.6c-0.5,0.4-1.2,0.3-1.6-0.2l0.9-0.7c-0.9,0.7-0.9,0.7-0.9,0.7l0,0l0,0
	l0,0c0,0,0,0-0.1-0.1c0-0.1-0.1-0.1-0.2-0.3c-0.2-0.2-0.4-0.5-0.6-1c-0.5-0.8-1.2-2-1.7-3.5c-1.1-2.8-2-6.7-0.8-10.9
	c-0.4-0.9-0.9-1.3-1.3-1.5c-0.4-0.2-1-0.2-1.8,0c-0.7,0.2-1.3,0.5-2.1,0.8c-0.1,0.1-0.3,0.1-0.4,0.2c-0.8,0.4-1.8,0.8-2.8,0.8
	c-1.5,0.1-2.9,0.1-4.1-0.6c-1.3-0.7-2-2-2.2-3.8c-0.3-2.2,1-3.8,2.4-4.9s3.1-1.9,4.3-2.3c1.9-0.8,4.2-1.4,6.4-1.5"/>
<path class="st14" d="M193.9,539l27.9-57.7l-48.4-96.8l-14.3,109.2l28.5,41.6C189.5,536.5,191.4,537.8,193.9,539z"/>
<path class="st15" d="M178,528.1c3.1,2.5,6.5,5,9.9,7.5l-20.8-78.8l-4,59L178,528.1z"/>
<path class="st14" d="M108.7,352.8c0,0-55.2,16.8-65,21.4c-11.2,4.3-28.9,10.5-36,16.4s-8.4,14.9-7.4,23.9c1.2,9,2.8,12.7,6.8,20.2
	c7.5,15.8,39.4,76,65.6,111.4c12.7,0.3,92.3,0,92.3,0l10.5-149.5c1.2-15.2-8.7-28.9-23.3-32.6L108.7,352.8z"/>
<path class="st15" d="M157.8,376.4c-1.2,9-1.6,30.4,3.4,42.2c5,11.8,7.4,15.5,7.4,15.5l1.6-40.3L157.8,376.4z"/>
<path class="st16" d="M157.3,401.8c0.7,0,1.5,0.6,1.5,1.3c0.3,7.1,2.7,13.9,5.8,20.2c0.7,1.9,1.8,3.8,2.7,5.8
	c2.2,4.6,4.4,9.4,5.9,14.5c2.1,7.2,2.7,15.5-0.6,22.3c-3,6.9-10.6,12.4-18.6,11.5c-0.7-0.1-1.3-0.7-1.2-1.6c0.1-0.7,0.7-1.3,1.6-1.2
	c6.6,0.7,13.1-3.8,15.7-9.9c3-6.1,2.4-13.6,0.4-20.4c-1.3-4.7-3.4-9.3-5.6-13.7c-0.9-1.9-1.9-4-2.8-6.1c-3.1-6.5-5.8-13.7-6.1-21.4
	C156,402.4,156.6,401.8,157.3,401.8z"/>
<path class="st15" d="M109,469.8c0,0-38.5-68.9-90.7-70.1c-4.7,6.2-17.1,7.5-16.8,15.8C1.8,422,3.4,427,7.1,435
	c3.1,6.8,10.5,20.8,22.3,41.9l75.5,36.6L109,469.8z"/>
<path class="st14" d="M13.5,443.1l69.3,75.1l54.4-28.8c0,0-60.9-69.5-100.6-104.9c-7.1,0.9-16.5-0.6-22.7,3.7
	C-0.9,397.8-6.8,417.7,13.5,443.1z"/>
<path class="st16" d="M24.2,386.9c0.3-0.7,1-1,1.8-0.7c9.2,3.5,19.1,10.3,28.4,18.3c9.5,8,18.6,17.4,26.6,26.4s14.8,17.4,19.6,23.8
	c2.4,3.1,4.3,5.8,5.6,7.5c0.6,0.9,1.2,1.6,1.5,2.1c0.1,0.3,0.3,0.4,0.4,0.6l0.1,0.1c0,0,0,0-1.2,0.9s-1.2,0.9-1.2,0.9l0.1-0.4
	c-0.1-0.1-0.1-0.3-0.4-0.6c-0.3-0.4-0.9-1.2-1.5-2.1c-1.3-1.8-3.2-4.3-5.6-7.5c-4.9-6.2-11.7-14.8-19.5-23.6
	c-8-8.9-17-18.2-26.3-26.1c-9.3-8-18.8-14.5-27.6-17.9C24.4,388.3,24.1,387.6,24.2,386.9z M108.1,466.7c-0.6,0.4-1.5,0.3-1.9-0.3
	l1.2-0.9l1.2-0.9C108.9,465.4,108.7,466.3,108.1,466.7z"/>
<path class="st3" d="M156.6,482.2c-1.5-32.3-4-64.9-7.1-97.4c0-3.4,0.3-5.3,0.3-5.3l-0.9-0.3c-0.9-6.5-9-8.1-12.4-4.7l-12.4-4.7
	l-23,95.9l-36.6,31.6c0,0,10.6,14.6,23.9,27.3c9.9,9.6,19.9,18,28.7,19.6c5,1.2,12.1,1.5,16.1-0.9c7.5-4.7,13-10.9,16.5-18
	C156.3,513.2,157.2,497.7,156.6,482.2z"/>
<path class="st12" d="M143,315c4.7-3.7,9.6-7.4,13.6-11.5c4-4.3,7.1-9.6,8.1-14.6c1.2-5-0.3-10.9-4.3-14c-1.6-1.5-4.6-2.8-7.5-3.4
	c-4.6-0.6-9.6-0.6-13,2.8c-2.5,2.5-1.6,5.9-1.9,9c-0.9,9.9-1.2,19.5,0.3,28.9c0.3,1.2,0.3,2.2,1.5,3.1c0.9,0.6,2.8,0,3.1-1.2"/>
<path class="st4" d="M139.9,325.5c1.9,1.9,6.8,5.6,7.1,4.7c1.9-7.5-2.2-23.9-2.2-23.9L139.9,325.5z"/>
<path class="st3" d="M140.5,276.8l1.9,3.1c4.7,7.8,6.2,17.1,4,26.1l-9,36.3c-2.5,9.9-9.6,13-17.7,8.4l-16.1-9.6l-17.1-42.9
	L140.5,276.8z"/>
<path class="st3" d="M116.5,337.6l-23.6-37.9l-38.3,72.5l19.2,1.9c0,0.6,0,0.9,0,1.5c0.6,12.1,13,22.3,24.8,18
	c7.5-2.8,10.2-7.4,11.8-16.1L116.5,337.6z"/>
<path class="st12" d="M96.3,294.5c-3.1,7.1-29.8,57.1-38.8,72.9c-3.4-16.1-4.6-28.9-2.5-51.5c3.5-41.6,19.6-56.5,39.9-57.7
	c24.2-1.2,32.6,16.8,49.8,13.6l-2.8,3.1c-4.7,10.2-12.4,18.6-22.7,22.6c-4.6,1.6-11.2,1.6-16.5,0C100.3,296.8,97.9,295.7,96.3,294.5
	z"/>
<path class="st3" d="M91.3,305.8l6.8-1.9l1.9-7.5c0,0-2.2-0.6-4.7-2.8c-2.2-2.2-5-4.7-7.1-5c-3.7-0.6-6.8,4.3-6.2,9.3
	C82.7,302.7,91.3,305.5,91.3,305.8z"/>
<path class="st4" d="M88.6,292.6c0.7-0.1,1.5,0.3,1.6,1l1.9,9.9c0.1,0.7-0.3,1.5-1,1.6s-1.5-0.3-1.6-1l-1.9-9.9
	C87.5,293.4,87.9,292.7,88.6,292.6z"/>
<path class="st12" d="M134.9,306.6c0.3-0.9,0.9-1.2,1.6-0.9c1.6,0.6,1.5,4.6,0,5c-0.6,0-0.9,0-1.5-0.6c-0.3-0.6-0.3-1.2-0.3-1.6
	C134.6,308.1,134.9,307.2,134.9,306.6z"/>
<path class="st17" d="M139.1,332.3c-3.1-0.3-6.2-0.3-9.3-0.3c-0.9,0-1.5,0.9-0.9,1.6c1.6,3.4,5.3,5,9,5c1.5,0,1.5-2.2,0-2.2
	c-3.1,0-5.9-1.2-7.1-4c-0.3,0.6-0.6,1.2-0.9,1.6c3.1,0,6.2,0,9.3,0.3C140.5,334.8,140.5,332.5,139.1,332.3z"/>
<path class="st12" d="M43.4,374.5l58,40.7C101.3,415.2,81.1,338.5,43.4,374.5z"/>
<path class="st4" d="M105.6,335.6c-0.3,0-0.6,0.3-0.9,0.6c-0.6,0.9-0.6,1.6-0.6,2.5c0,4,1.5,9,2.8,12.4c1.5,3.4,3.7,6.8,5.6,9
	c0.6-2.5,1.6-7.5,0.9-9.3c-1.6-3.1-2.8-5.6-4.3-9C109.3,341,107.5,335.1,105.6,335.6z"/>
<path class="st4" d="M101.6,464.8c0.7,0.1,1.2,0.9,1,1.6l-1.3-0.3l-1.3-0.3C100.2,465.1,100.9,464.6,101.6,464.8z M101.3,466.1
	l-1.3-0.3l-0.1,0.7c-0.1,0.6-0.3,1.3-0.4,2.2c-0.4,1.9-1,4.7-1.8,8.1c-1.5,6.6-3.5,15.6-5.6,24.5c-0.1,0.7,0.3,1.5,1,1.6
	s1.5-0.3,1.6-1c2.1-8.9,4.1-17.9,5.6-24.5c0.7-3.4,1.3-6.2,1.8-8.1c0.1-1,0.4-1.8,0.4-2.2l0.1-0.7L101.3,466.1z"/>
<path class="st3" d="M122.8,380.1c-1.9-5.9-6.2-17.1-8.4-24.8c-0.6-2.2-1.5-4.6-1.6-5.6c-1.2-4.3,3.7-5,6.5-2.2s9.6,12.7,9.6,12.7
	s10.6-13.3,14.3-18.9s5.6-8.4,7.5-6.8s-4.7,19.6-5.3,21.4c2.8-1.5,3.7,4.6,2.8,6.5c2.5-0.9,1.9,5,1.6,6.5c2.2-0.9,0,20.2,0,20.2
	l-6.8,22.4L122.8,380.1z"/>
<path class="st4" d="M112.6,347.8c-0.3,0.6-0.4,1.5-0.3,3c0.1,0.7-0.4,1.5-1.2,1.6c-0.7,0.1-1.5-0.4-1.6-1.2c-0.3-1.8,0-3.2,0.6-4.6
	c0.6-1.2,1.6-2.1,2.8-2.4c2.2-0.7,4.7,0.1,6.6,1.6c1.5,1.5,4,4.6,5.9,7.2c1,1.3,1.9,2.7,2.7,3.5c0.3,0.4,0.6,0.9,0.7,1l0.1,0.3
	l0.1,0.1l-1.2,0.9l-1.2,0.9l-0.1-0.1l0.1-0.3c-0.1-0.3-0.4-0.6-0.7-1c-0.7-0.9-1.6-2.2-2.7-3.5c-2.1-2.7-4.3-5.6-5.6-6.9
	c-1.3-1-3-1.5-4-1C113.1,346.9,112.9,347.2,112.6,347.8z M129,360.1c-0.6,0.4-1.5,0.3-1.9-0.3l1.2-0.9l1.2-0.9
	C129.7,358.7,129.5,359.6,129,360.1z"/>
<path class="st4" d="M132.4,355.6c0.6,0.4,0.6,1.3,0.1,1.9l-5.6,6.5c-0.4,0.6-1.3,0.6-1.9,0.1c-0.6-0.4-0.6-1.3-0.1-1.9l5.6-6.5
	C130.9,355.1,131.9,355.1,132.4,355.6z"/>
<path class="st4" d="M145.9,354.2c0.7,0.3,1,1.2,0.6,1.9l-3.4,7.1c-0.3,0.7-1.2,1-1.9,0.6c-0.7-0.3-1-1.2-0.6-1.9l3.4-7.1
	C144.3,354.2,145.2,353.9,145.9,354.2z"/>
<path class="st4" d="M148.6,360.7c0.7,0.3,1.2,1,0.9,1.8l-1.6,5.3c-0.3,0.7-1,1.2-1.8,0.9c-0.7-0.3-1.2-1-0.9-1.8l1.6-5.3
	C147,360.9,147.9,360.4,148.6,360.7z"/>
<path class="st4" d="M289.2,408.4c0,0,7.4,2.5,13.6-0.3c7.5-3.4,1.5-7.1,1.5-7.1L289.2,408.4z"/>
<path class="st3" d="M327.8,380.1c-0.3-0.6-0.6-0.9-1.2-1.2c-1.9-1.2-4-0.9-6.2-0.9c-0.3,0-0.6,0-0.9-0.3c-1.2-0.3-1.9-1.2-3.4-1.5
	c-3.1-0.6-6.5,0.3-9.6,0.3c-2.8,0-27.3,7.5-39.4,20.8c-3.1,3.4-5.3,6.5-7.4,9.3c-10.9,14.9-16.1,27.3-24.2,45
	c-10.9,23.6-28.7,59.9-41.9,86.9h0.3c7.1,4,14.9,7.1,27.3,7.1c18.6-1.2,29.5-11.8,35.4-26.4c5.6-16.5,9.9-33.8,14.3-50.3
	c1.9-7.8,4-15.8,5.6-23.6c0.9-3.4,1.6-7.1,2.5-10.5c1.2-3.7,1.6-7.5,4.3-10.6c2.8-3.4,6.2-6.2,10.2-8.1c4.7-2.2,9.9-3.7,14.3-6.2
	c4.3-2.5,7.1-6.5,10.2-10.5c3.4-4.3,6.2-9,8.4-14c0.6-1.5,1.2-3.1,1.5-4.6C327.8,381,327.8,380.7,327.8,380.1z"/>
<path class="st4" d="M302.6,406.8c0.6,0.6,0.9,0.9,1.5,1.5c1.2,1.5,3.1-0.6,1.9-1.9c-0.9-0.9-1.6-1.9-2.5-2.8
	c-1.2-1.5-3.1,0.6-1.9,1.9c0.9,0.9,1.6,1.9,2.5,2.8c0.6-0.6,1.5-1.5,1.9-1.9c-0.6-0.6-0.9-0.9-1.5-1.5
	C303.5,403.4,301.6,405.3,302.6,406.8z"/>
<path class="st3" d="M261.9,404.3c8.7-11.2,19.2-22.6,28.9-32.9c0.6-0.6,1.2-1.2,1.9-1.5c1.2,0,2.2,1.2,2.2,2.2
	c0,1.2-0.3,2.2-0.9,3.4c-2.5,5.9-5.3,11.5-7.8,17.4L261.9,404.3z"/>
<path class="st12" d="M329.4,375.8l0.6,3.4l-4.6,3.1l-1.6-5L329.4,375.8z"/>
<path class="st12" d="M273.1,399.4c0,0.9,0.9,4,0.9,4l4.3-2.5l-3.1-2.8L273.1,399.4z"/>
<path class="st12" d="M328,377.6l-16.1-4.3c-2.2-0.6-5.6,0.3-7.5,1.9l-29.2,25.5c-1.9,1.6-1.5,3.4,0.9,4l16.1,4.3
	c2.2,0.6,5.6-0.3,7.5-1.9l29.2-25.5C330.9,380.1,330.3,378,328,377.6z"/>
<path class="st6" d="M327.2,374.2l-16.1-4.3c-2.2-0.6-5.6,0.3-7.5,1.9l-29.2,25.5c-1.9,1.6-1.5,3.4,0.9,4l16.1,4.3
	c2.2,0.6,5.6-0.3,7.5-1.9l29.2-25.5C330,376.4,329.7,374.8,327.2,374.2z"/>
<path class="st18" d="M275.9,395.6l24.5,6.5l25.7-22.3l-24.5-6.5L275.9,395.6z"/>
<path class="st3" d="M314.3,402.5c0.6-2.2-0.9-2.8-2.2-3.7c-2.2-1.6-4.7-3.1-7.4-4.3c-1.9-1.2-4-1.9-5.9-2.8
	c-1.5-0.6-5.6-3.1-5.9-0.6c-0.3,1.5,0.6,2.5,1.5,3.7c1.6,1.6,3.4,3.4,5.3,4.7c0.9,0.9,1.6,1.5,2.5,2.2c0.3,0.3,4.6,4.3,5,4.3
	C308.8,406.2,313.4,405.2,314.3,402.5z"/>
<path class="st3" d="M316.8,400.9c0.3-0.3,0.9-0.6,1.2-1.2c1.2-1.9,0.3-4.3-0.3-6.5c-0.6-2.2-1.2-4.6-1.6-6.8
	c-0.6-1.9-1.2-4-1.6-5.6c-0.3-1.2-0.9-3.4-2.2-3.4c-0.9,0-1.5,0.9-1.6,1.6c-0.3,0.9-0.3,1.6-0.3,2.5c0.3,5.9,0,11.8,0.3,17.7
	C312.5,400.3,315,402.1,316.8,400.9z"/>
<path class="st4" d="M310.3,398.4c1.5,1.2,2.8,2.8,2.8,4.7c0,1.6,2.8,1.6,2.8,0c0-2.8-1.5-5-3.7-6.8
	C310.9,395.3,308.8,397.2,310.3,398.4z"/>
<path class="st4" d="M317.3,392.2c0.6,2.2,0.9,4.6,0,6.8c-0.6,1.6,2.2,2.5,2.8,0.9c0.9-2.8,0.6-5.3,0-8.1
	C319.9,389.7,317.1,390.4,317.3,392.2z"/>
<path class="st19" d="M330.9,333.2c-14.2-14.2-36.5-14.8-49.9-1.4"/>
<path class="st19" d="M343.8,320.9c-20.7-20.7-53.8-21-74.1-0.7"/>
<path class="st19" d="M318.9,346.2c-6.9-6.9-17.7-7.1-24.3-0.5"/>
<path class="st6" d="M330,165.7c-9.8,0.9-17.4,8.1-17.4,15.8l0,0l-0.4,32.6c-0.2,7.7,7.1,13.7,16.7,13c9.6-0.9,17.2-7.9,17.4-15.8
	l0.4-32.6C347,171,339.6,165.1,330,165.7z"/>
</svg>
