<svg width="19" height="13" viewBox="0 0 19 13" fill="none" xmlns="http://www.w3.org/2000/svg">
<g clip-path="url(#clip0)">
<path d="M18.5196 2.03412C18.3016 1.23882 17.6629 0.611765 16.853 0.397647C15.3733 0 9.45451 0 9.45451 0C9.45451 0 3.5357 0 2.056 0.382353C1.26164 0.596471 0.607456 1.23882 0.389395 2.03412C0 3.48706 0 6.5 0 6.5C0 6.5 0 9.52823 0.389395 10.9659C0.607456 11.7612 1.24606 12.3882 2.056 12.6024C3.55128 13 9.45451 13 9.45451 13C9.45451 13 15.3733 13 16.853 12.6176C17.6629 12.4035 18.3016 11.7765 18.5196 10.9812C18.909 9.52824 18.909 6.51529 18.909 6.51529C18.909 6.51529 18.9246 3.48706 18.5196 2.03412Z" fill="#7674E2"/>
<path d="M12.4918 6.49837L7.56982 3.71484V9.2819L12.4918 6.49837Z" fill="white"/>
</g>
<defs>
<clipPath id="clip0">
<rect width="18.9091" height="13" fill="white"/>
</clipPath>
</defs>
</svg>
